<?xml version="1.0" encoding="UTF-8" standalone="no"?>
<!DOCTYPE svg PUBLIC "-//W3C//DTD SVG 1.1//EN"
 "http://www.w3.org/Graphics/SVG/1.1/DTD/svg11.dtd">
<!-- Generated by graphviz version 2.38.0 (20140413.2041)
 -->
<!-- Title: zia::api::ConfValue Pages: 1 -->
<svg width="134pt" height="182pt"
 viewBox="0.00 0.00 134.00 182.00" xmlns="http://www.w3.org/2000/svg" xmlns:xlink="http://www.w3.org/1999/xlink">
<g id="graph0" class="graph" transform="scale(1 1) rotate(0) translate(4 178)">
<title>zia::api::ConfValue</title>
<polygon fill="white" stroke="none" points="-4,4 -4,-178 130,-178 130,4 -4,4"/>
<!-- Node0 -->
<g id="node1" class="node"><title>Node0</title>
<polygon fill="#bfbfbf" stroke="black" points="14,-0.5 14,-57.5 112,-57.5 112,-0.5 14,-0.5"/>
<text text-anchor="middle" x="63" y="-45.5" font-family="Helvetica,sans-Serif" font-size="10.00">zia::api::ConfValue</text>
<polyline fill="none" stroke="black" points="14,-38.5 112,-38.5 "/>
<text text-anchor="middle" x="63" y="-26.5" font-family="Helvetica,sans-Serif" font-size="10.00"> </text>
<polyline fill="none" stroke="black" points="14,-19.5 112,-19.5 "/>
<text text-anchor="middle" x="63" y="-7.5" font-family="Helvetica,sans-Serif" font-size="10.00"> </text>
</g>
<!-- Node1 -->
<g id="node2" class="node"><title>Node1</title>
<polygon fill="white" stroke="#bfbfbf" points="0,-94.5 0,-173.5 126,-173.5 126,-94.5 0,-94.5"/>
<text text-anchor="start" x="8" y="-161.5" font-family="Helvetica,sans-Serif" font-size="10.00">std::variant&lt; ConfObject,</text>
<text text-anchor="start" x="8" y="-150.5" font-family="Helvetica,sans-Serif" font-size="10.00"> ConfArray, std::string,</text>
<text text-anchor="middle" x="63" y="-139.5" font-family="Helvetica,sans-Serif" font-size="10.00"> long long, double, bool &gt;</text>
<polyline fill="none" stroke="#bfbfbf" points="0,-132.5 126,-132.5 "/>
<text text-anchor="middle" x="63" y="-120.5" font-family="Helvetica,sans-Serif" font-size="10.00"> </text>
<polyline fill="none" stroke="#bfbfbf" points="0,-113.5 126,-113.5 "/>
<text text-anchor="middle" x="63" y="-101.5" font-family="Helvetica,sans-Serif" font-size="10.00"> </text>
</g>
<!-- Node1&#45;&gt;Node0 -->
<g id="edge1" class="edge"><title>Node1&#45;&gt;Node0</title>
<path fill="none" stroke="midnightblue" d="M63,-84.1628C63,-75.0404 63,-65.8063 63,-57.6095"/>
<polygon fill="none" stroke="midnightblue" points="59.5001,-84.3535 63,-94.3536 66.5001,-84.3536 59.5001,-84.3535"/>
</g>
</g>
</svg>
