<?xml version="1.0" encoding="UTF-8" standalone="no"?>
<!DOCTYPE svg PUBLIC "-//W3C//DTD SVG 1.1//EN"
 "http://www.w3.org/Graphics/SVG/1.1/DTD/svg11.dtd">
<!-- Generated by graphviz version 2.38.0 (20140413.2041)
 -->
<!-- Title: conf.h Pages: 1 -->
<svg width="225pt" height="84pt"
 viewBox="0.00 0.00 224.50 84.00" xmlns="http://www.w3.org/2000/svg" xmlns:xlink="http://www.w3.org/1999/xlink">
<g id="graph0" class="graph" transform="scale(1 1) rotate(0) translate(4 80)">
<title>conf.h</title>
<polygon fill="white" stroke="none" points="-4,4 -4,-80 220.5,-80 220.5,4 -4,4"/>
<!-- Node0 -->
<g id="node1" class="node"><title>Node0</title>
<polygon fill="#bfbfbf" stroke="black" points="82,-56.5 82,-75.5 125,-75.5 125,-56.5 82,-56.5"/>
<text text-anchor="middle" x="103.5" y="-63.5" font-family="Helvetica,sans-Serif" font-size="10.00">conf.h</text>
</g>
<!-- Node1 -->
<g id="node2" class="node"><title>Node1</title>
<polygon fill="white" stroke="#bfbfbf" points="0,-0.5 0,-19.5 35,-19.5 35,-0.5 0,-0.5"/>
<text text-anchor="middle" x="17.5" y="-7.5" font-family="Helvetica,sans-Serif" font-size="10.00">map</text>
</g>
<!-- Node0&#45;&gt;Node1 -->
<g id="edge1" class="edge"><title>Node0&#45;&gt;Node1</title>
<path fill="none" stroke="midnightblue" d="M89.6826,-56.324C76.267,-47.9002 55.6759,-34.9709 39.9144,-25.0741"/>
<polygon fill="midnightblue" stroke="midnightblue" points="41.6132,-22.0081 31.2831,-19.6545 37.8908,-27.9364 41.6132,-22.0081"/>
</g>
<!-- Node2 -->
<g id="node3" class="node"><title>Node2</title>
<polygon fill="white" stroke="#bfbfbf" points="53,-0.5 53,-19.5 94,-19.5 94,-0.5 53,-0.5"/>
<text text-anchor="middle" x="73.5" y="-7.5" font-family="Helvetica,sans-Serif" font-size="10.00">string</text>
</g>
<!-- Node0&#45;&gt;Node2 -->
<g id="edge2" class="edge"><title>Node0&#45;&gt;Node2</title>
<path fill="none" stroke="midnightblue" d="M98.5461,-56.083C94.3959,-48.6127 88.3469,-37.7244 83.2333,-28.5199"/>
<polygon fill="midnightblue" stroke="midnightblue" points="86.2777,-26.7929 78.3617,-19.7511 80.1586,-30.1924 86.2777,-26.7929"/>
</g>
<!-- Node3 -->
<g id="node4" class="node"><title>Node3</title>
<polygon fill="white" stroke="#bfbfbf" points="112.5,-0.5 112.5,-19.5 156.5,-19.5 156.5,-0.5 112.5,-0.5"/>
<text text-anchor="middle" x="134.5" y="-7.5" font-family="Helvetica,sans-Serif" font-size="10.00">variant</text>
</g>
<!-- Node0&#45;&gt;Node3 -->
<g id="edge3" class="edge"><title>Node0&#45;&gt;Node3</title>
<path fill="none" stroke="midnightblue" d="M108.619,-56.083C112.908,-48.6127 119.158,-37.7244 124.442,-28.5199"/>
<polygon fill="midnightblue" stroke="midnightblue" points="127.533,-30.1662 129.476,-19.7511 121.462,-26.6811 127.533,-30.1662"/>
</g>
<!-- Node4 -->
<g id="node5" class="node"><title>Node4</title>
<polygon fill="white" stroke="#bfbfbf" points="174.5,-0.5 174.5,-19.5 216.5,-19.5 216.5,-0.5 174.5,-0.5"/>
<text text-anchor="middle" x="195.5" y="-7.5" font-family="Helvetica,sans-Serif" font-size="10.00">vector</text>
</g>
<!-- Node0&#45;&gt;Node4 -->
<g id="edge4" class="edge"><title>Node0&#45;&gt;Node4</title>
<path fill="none" stroke="midnightblue" d="M118.281,-56.324C132.767,-47.8215 155.073,-34.7288 171.993,-24.7975"/>
<polygon fill="midnightblue" stroke="midnightblue" points="173.903,-27.735 180.755,-19.6545 170.359,-21.6981 173.903,-27.735"/>
</g>
</g>
</svg>
