<?xml version="1.0" encoding="UTF-8" standalone="no"?>
<!DOCTYPE svg PUBLIC "-//W3C//DTD SVG 1.1//EN"
 "http://www.w3.org/Graphics/SVG/1.1/DTD/svg11.dtd">
<!-- Generated by graphviz version 2.38.0 (20140413.2041)
 -->
<!-- Title: http.h Pages: 1 -->
<svg width="382pt" height="140pt"
 viewBox="0.00 0.00 381.50 140.00" xmlns="http://www.w3.org/2000/svg" xmlns:xlink="http://www.w3.org/1999/xlink">
<g id="graph0" class="graph" transform="scale(1 1) rotate(0) translate(4 136)">
<title>http.h</title>
<polygon fill="white" stroke="none" points="-4,4 -4,-136 377.5,-136 377.5,4 -4,4"/>
<!-- Node0 -->
<g id="node1" class="node"><title>Node0</title>
<polygon fill="#bfbfbf" stroke="black" points="289.5,-112.5 289.5,-131.5 330.5,-131.5 330.5,-112.5 289.5,-112.5"/>
<text text-anchor="middle" x="310" y="-119.5" font-family="Helvetica,sans-Serif" font-size="10.00">http.h</text>
</g>
<!-- Node1 -->
<g id="node2" class="node"><title>Node1</title>
<g id="a_node2"><a xlink:href="net_8h.html" target="_top" xlink:title="net.h">
<polygon fill="white" stroke="black" points="204,-56.5 204,-75.5 242,-75.5 242,-56.5 204,-56.5"/>
<text text-anchor="middle" x="223" y="-63.5" font-family="Helvetica,sans-Serif" font-size="10.00">net.h</text>
</a>
</g>
</g>
<!-- Node0&#45;&gt;Node1 -->
<g id="edge1" class="edge"><title>Node0&#45;&gt;Node1</title>
<path fill="none" stroke="midnightblue" d="M296.022,-112.324C282.45,-103.9 261.62,-90.9709 245.675,-81.0741"/>
<polygon fill="midnightblue" stroke="midnightblue" points="247.286,-77.9544 236.943,-75.6545 243.594,-83.9019 247.286,-77.9544"/>
</g>
<!-- Node6 -->
<g id="node7" class="node"><title>Node6</title>
<polygon fill="white" stroke="#bfbfbf" points="330.5,-0.5 330.5,-19.5 371.5,-19.5 371.5,-0.5 330.5,-0.5"/>
<text text-anchor="middle" x="351" y="-7.5" font-family="Helvetica,sans-Serif" font-size="10.00">string</text>
</g>
<!-- Node0&#45;&gt;Node6 -->
<g id="edge9" class="edge"><title>Node0&#45;&gt;Node6</title>
<path fill="none" stroke="midnightblue" d="M312.222,-112.459C315.578,-99.9107 322.363,-75.8328 330,-56 333.485,-46.9488 337.963,-37.1624 341.887,-29.035"/>
<polygon fill="midnightblue" stroke="midnightblue" points="345.155,-30.3234 346.447,-19.8076 338.879,-27.2225 345.155,-30.3234"/>
</g>
<!-- Node8 -->
<g id="node9" class="node"><title>Node8</title>
<polygon fill="white" stroke="#bfbfbf" points="338.5,-56.5 338.5,-75.5 373.5,-75.5 373.5,-56.5 338.5,-56.5"/>
<text text-anchor="middle" x="356" y="-63.5" font-family="Helvetica,sans-Serif" font-size="10.00">map</text>
</g>
<!-- Node0&#45;&gt;Node8 -->
<g id="edge8" class="edge"><title>Node0&#45;&gt;Node8</title>
<path fill="none" stroke="midnightblue" d="M317.596,-112.083C324.227,-104.298 334.021,-92.8015 342.058,-83.3665"/>
<polygon fill="midnightblue" stroke="midnightblue" points="344.725,-85.6332 348.545,-75.7511 339.396,-81.0939 344.725,-85.6332"/>
</g>
<!-- Node2 -->
<g id="node3" class="node"><title>Node2</title>
<polygon fill="white" stroke="#bfbfbf" points="0,-0.5 0,-19.5 46,-19.5 46,-0.5 0,-0.5"/>
<text text-anchor="middle" x="23" y="-7.5" font-family="Helvetica,sans-Serif" font-size="10.00">chrono</text>
</g>
<!-- Node1&#45;&gt;Node2 -->
<g id="edge2" class="edge"><title>Node1&#45;&gt;Node2</title>
<path fill="none" stroke="midnightblue" d="M203.831,-59.9485C174.261,-52.1384 115.5,-36.5487 56.0014,-20.2506"/>
<polygon fill="midnightblue" stroke="midnightblue" points="56.6322,-16.7944 46.0625,-17.5233 54.7798,-23.5449 56.6322,-16.7944"/>
</g>
<!-- Node3 -->
<g id="node4" class="node"><title>Node3</title>
<polygon fill="white" stroke="#bfbfbf" points="64,-0.5 64,-19.5 112,-19.5 112,-0.5 64,-0.5"/>
<text text-anchor="middle" x="88" y="-7.5" font-family="Helvetica,sans-Serif" font-size="10.00">cstddef</text>
</g>
<!-- Node1&#45;&gt;Node3 -->
<g id="edge3" class="edge"><title>Node1&#45;&gt;Node3</title>
<path fill="none" stroke="midnightblue" d="M203.944,-57.3776C181.903,-48.5612 145.296,-33.9185 119.111,-23.4444"/>
<polygon fill="midnightblue" stroke="midnightblue" points="120.222,-20.1193 109.637,-19.655 117.622,-26.6186 120.222,-20.1193"/>
</g>
<!-- Node4 -->
<g id="node5" class="node"><title>Node4</title>
<polygon fill="white" stroke="#bfbfbf" points="130,-0.5 130,-19.5 176,-19.5 176,-0.5 130,-0.5"/>
<text text-anchor="middle" x="153" y="-7.5" font-family="Helvetica,sans-Serif" font-size="10.00">cstdint</text>
</g>
<!-- Node1&#45;&gt;Node4 -->
<g id="edge4" class="edge"><title>Node1&#45;&gt;Node4</title>
<path fill="none" stroke="midnightblue" d="M211.753,-56.324C201.203,-48.1849 185.199,-35.8395 172.558,-26.0874"/>
<polygon fill="midnightblue" stroke="midnightblue" points="174.507,-23.1707 164.451,-19.8339 170.231,-28.7132 174.507,-23.1707"/>
</g>
<!-- Node5 -->
<g id="node6" class="node"><title>Node5</title>
<polygon fill="white" stroke="#bfbfbf" points="194,-0.5 194,-19.5 252,-19.5 252,-0.5 194,-0.5"/>
<text text-anchor="middle" x="223" y="-7.5" font-family="Helvetica,sans-Serif" font-size="10.00">functional</text>
</g>
<!-- Node1&#45;&gt;Node5 -->
<g id="edge5" class="edge"><title>Node1&#45;&gt;Node5</title>
<path fill="none" stroke="midnightblue" d="M223,-56.083C223,-49.0059 223,-38.8611 223,-29.9865"/>
<polygon fill="midnightblue" stroke="midnightblue" points="226.5,-29.751 223,-19.7511 219.5,-29.7511 226.5,-29.751"/>
</g>
<!-- Node1&#45;&gt;Node6 -->
<g id="edge6" class="edge"><title>Node1&#45;&gt;Node6</title>
<path fill="none" stroke="midnightblue" d="M242.163,-56.9157C263.004,-48.1235 296.592,-33.9534 320.948,-23.6781"/>
<polygon fill="midnightblue" stroke="midnightblue" points="322.579,-26.7888 330.432,-19.677 319.858,-20.3393 322.579,-26.7888"/>
</g>
<!-- Node7 -->
<g id="node8" class="node"><title>Node7</title>
<polygon fill="white" stroke="#bfbfbf" points="270,-0.5 270,-19.5 312,-19.5 312,-0.5 270,-0.5"/>
<text text-anchor="middle" x="291" y="-7.5" font-family="Helvetica,sans-Serif" font-size="10.00">vector</text>
</g>
<!-- Node1&#45;&gt;Node7 -->
<g id="edge7" class="edge"><title>Node1&#45;&gt;Node7</title>
<path fill="none" stroke="midnightblue" d="M233.925,-56.324C244.175,-48.1849 259.721,-35.8395 272.001,-26.0874"/>
<polygon fill="midnightblue" stroke="midnightblue" points="274.221,-28.7937 279.876,-19.8339 269.868,-23.3119 274.221,-28.7937"/>
</g>
</g>
</svg>
