<?xml version="1.0" encoding="UTF-8" standalone="no"?>
<!DOCTYPE svg PUBLIC "-//W3C//DTD SVG 1.1//EN"
 "http://www.w3.org/Graphics/SVG/1.1/DTD/svg11.dtd">
<!-- Generated by graphviz version 2.38.0 (20140413.2041)
 -->
<!-- Title: http.h Pages: 1 -->
<svg width="328pt" height="140pt"
 viewBox="0.00 0.00 327.50 140.00" xmlns="http://www.w3.org/2000/svg" xmlns:xlink="http://www.w3.org/1999/xlink">
<g id="graph0" class="graph" transform="scale(1 1) rotate(0) translate(4 136)">
<title>http.h</title>
<polygon fill="white" stroke="none" points="-4,4 -4,-136 323.5,-136 323.5,4 -4,4"/>
<!-- Node0 -->
<g id="node1" class="node"><title>Node0</title>
<polygon fill="#bfbfbf" stroke="black" points="235.5,-112.5 235.5,-131.5 276.5,-131.5 276.5,-112.5 235.5,-112.5"/>
<text text-anchor="middle" x="256" y="-119.5" font-family="Helvetica,sans-Serif" font-size="10.00">http.h</text>
</g>
<!-- Node1 -->
<g id="node2" class="node"><title>Node1</title>
<g id="a_node2"><a xlink:href="net_8h.html" target="_top" xlink:title="net.h">
<polygon fill="white" stroke="black" points="153,-56.5 153,-75.5 191,-75.5 191,-56.5 153,-56.5"/>
<text text-anchor="middle" x="172" y="-63.5" font-family="Helvetica,sans-Serif" font-size="10.00">net.h</text>
</a>
</g>
</g>
<!-- Node0&#45;&gt;Node1 -->
<g id="edge1" class="edge"><title>Node0&#45;&gt;Node1</title>
<path fill="none" stroke="midnightblue" d="M242.504,-112.324C229.4,-103.9 209.288,-90.9709 193.893,-81.0741"/>
<polygon fill="midnightblue" stroke="midnightblue" points="195.767,-78.118 185.463,-75.6545 191.982,-84.0063 195.767,-78.118"/>
</g>
<!-- Node5 -->
<g id="node6" class="node"><title>Node5</title>
<polygon fill="white" stroke="#bfbfbf" points="254.5,-0.5 254.5,-19.5 295.5,-19.5 295.5,-0.5 254.5,-0.5"/>
<text text-anchor="middle" x="275" y="-7.5" font-family="Helvetica,sans-Serif" font-size="10.00">string</text>
</g>
<!-- Node0&#45;&gt;Node5 -->
<g id="edge8" class="edge"><title>Node0&#45;&gt;Node5</title>
<path fill="none" stroke="midnightblue" d="M257.491,-112.368C260.557,-94.617 267.63,-53.6664 271.788,-29.5974"/>
<polygon fill="midnightblue" stroke="midnightblue" points="275.263,-30.0413 273.516,-19.5914 268.365,-28.8498 275.263,-30.0413"/>
</g>
<!-- Node7 -->
<g id="node8" class="node"><title>Node7</title>
<polygon fill="white" stroke="#bfbfbf" points="284.5,-56.5 284.5,-75.5 319.5,-75.5 319.5,-56.5 284.5,-56.5"/>
<text text-anchor="middle" x="302" y="-63.5" font-family="Helvetica,sans-Serif" font-size="10.00">map</text>
</g>
<!-- Node0&#45;&gt;Node7 -->
<g id="edge7" class="edge"><title>Node0&#45;&gt;Node7</title>
<path fill="none" stroke="midnightblue" d="M263.596,-112.083C270.227,-104.298 280.021,-92.8015 288.058,-83.3665"/>
<polygon fill="midnightblue" stroke="midnightblue" points="290.725,-85.6332 294.545,-75.7511 285.396,-81.0939 290.725,-85.6332"/>
</g>
<!-- Node2 -->
<g id="node3" class="node"><title>Node2</title>
<polygon fill="white" stroke="#bfbfbf" points="0,-0.5 0,-19.5 46,-19.5 46,-0.5 0,-0.5"/>
<text text-anchor="middle" x="23" y="-7.5" font-family="Helvetica,sans-Serif" font-size="10.00">chrono</text>
</g>
<!-- Node1&#45;&gt;Node2 -->
<g id="edge2" class="edge"><title>Node1&#45;&gt;Node2</title>
<path fill="none" stroke="midnightblue" d="M152.826,-58.051C128.252,-49.1448 85.2779,-33.5705 55.5401,-22.793"/>
<polygon fill="midnightblue" stroke="midnightblue" points="56.6024,-19.4553 46.0082,-19.3385 54.2172,-26.0365 56.6024,-19.4553"/>
</g>
<!-- Node3 -->
<g id="node4" class="node"><title>Node3</title>
<polygon fill="white" stroke="#bfbfbf" points="64,-0.5 64,-19.5 112,-19.5 112,-0.5 64,-0.5"/>
<text text-anchor="middle" x="88" y="-7.5" font-family="Helvetica,sans-Serif" font-size="10.00">cstddef</text>
</g>
<!-- Node1&#45;&gt;Node3 -->
<g id="edge3" class="edge"><title>Node1&#45;&gt;Node3</title>
<path fill="none" stroke="midnightblue" d="M158.504,-56.324C145.4,-47.9002 125.288,-34.9709 109.893,-25.0741"/>
<polygon fill="midnightblue" stroke="midnightblue" points="111.767,-22.118 101.463,-19.6545 107.982,-28.0063 111.767,-22.118"/>
</g>
<!-- Node4 -->
<g id="node5" class="node"><title>Node4</title>
<polygon fill="white" stroke="#bfbfbf" points="130,-0.5 130,-19.5 176,-19.5 176,-0.5 130,-0.5"/>
<text text-anchor="middle" x="153" y="-7.5" font-family="Helvetica,sans-Serif" font-size="10.00">cstdint</text>
</g>
<!-- Node1&#45;&gt;Node4 -->
<g id="edge4" class="edge"><title>Node1&#45;&gt;Node4</title>
<path fill="none" stroke="midnightblue" d="M168.863,-56.083C166.317,-48.8486 162.644,-38.4087 159.473,-29.3968"/>
<polygon fill="midnightblue" stroke="midnightblue" points="162.7,-28.0225 156.079,-19.7511 156.097,-30.3459 162.7,-28.0225"/>
</g>
<!-- Node1&#45;&gt;Node5 -->
<g id="edge5" class="edge"><title>Node1&#45;&gt;Node5</title>
<path fill="none" stroke="midnightblue" d="M188.549,-56.324C204.992,-47.7034 230.435,-34.3643 249.468,-24.3855"/>
<polygon fill="midnightblue" stroke="midnightblue" points="251.261,-27.3977 258.492,-19.6545 248.011,-21.198 251.261,-27.3977"/>
</g>
<!-- Node6 -->
<g id="node7" class="node"><title>Node6</title>
<polygon fill="white" stroke="#bfbfbf" points="194,-0.5 194,-19.5 236,-19.5 236,-0.5 194,-0.5"/>
<text text-anchor="middle" x="215" y="-7.5" font-family="Helvetica,sans-Serif" font-size="10.00">vector</text>
</g>
<!-- Node1&#45;&gt;Node6 -->
<g id="edge6" class="edge"><title>Node1&#45;&gt;Node6</title>
<path fill="none" stroke="midnightblue" d="M179.101,-56.083C185.237,-48.3768 194.27,-37.0333 201.739,-27.6531"/>
<polygon fill="midnightblue" stroke="midnightblue" points="204.54,-29.7542 208.032,-19.7511 199.064,-25.3936 204.54,-29.7542"/>
</g>
</g>
</svg>
