<?xml version="1.0" encoding="UTF-8" standalone="no"?>
<!DOCTYPE svg PUBLIC "-//W3C//DTD SVG 1.1//EN"
 "http://www.w3.org/Graphics/SVG/1.1/DTD/svg11.dtd">
<!-- Generated by graphviz version 2.38.0 (20140413.2041)
 -->
<!-- Title: Graphical Class Hierarchy Pages: 1 -->
<svg width="272pt" height="66pt"
 viewBox="0.00 0.00 272.00 66.00" xmlns="http://www.w3.org/2000/svg" xmlns:xlink="http://www.w3.org/1999/xlink">
<g id="graph0" class="graph" transform="scale(1 1) rotate(0) translate(4 62)">
<title>Graphical Class Hierarchy</title>
<polygon fill="white" stroke="none" points="-4,4 -4,-62 268,-62 268,4 -4,4"/>
<!-- Node0 -->
<g id="node1" class="node"><title>Node0</title>
<g id="a_node1"><a xlink:href="structzia_1_1api_1_1_http_message.html" target="_top" xlink:title="zia::api::HttpMessage">
<polygon fill="white" stroke="black" points="0,-19.5 0,-38.5 112,-38.5 112,-19.5 0,-19.5"/>
<text text-anchor="middle" x="56" y="-26.5" font-family="Helvetica,sans-Serif" font-size="10.00">zia::api::HttpMessage</text>
</a>
</g>
</g>
<!-- Node1 -->
<g id="node2" class="node"><title>Node1</title>
<g id="a_node2"><a xlink:href="structzia_1_1api_1_1_http_request.html" target="_top" xlink:title="zia::api::HttpRequest">
<polygon fill="white" stroke="black" points="152,-38.5 152,-57.5 260,-57.5 260,-38.5 152,-38.5"/>
<text text-anchor="middle" x="206" y="-45.5" font-family="Helvetica,sans-Serif" font-size="10.00">zia::api::HttpRequest</text>
</a>
</g>
</g>
<!-- Node0&#45;&gt;Node1 -->
<g id="edge1" class="edge"><title>Node0&#45;&gt;Node1</title>
<path fill="none" stroke="midnightblue" d="M122.289,-37.3817C132.158,-38.6487 142.237,-39.9426 151.81,-41.1716"/>
<polygon fill="midnightblue" stroke="midnightblue" points="122.474,-33.8768 112.11,-36.0749 121.583,-40.8198 122.474,-33.8768"/>
</g>
<!-- Node2 -->
<g id="node3" class="node"><title>Node2</title>
<g id="a_node3"><a xlink:href="structzia_1_1api_1_1_http_response.html" target="_top" xlink:title="zia::api::HttpResponse">
<polygon fill="white" stroke="black" points="148,-0.5 148,-19.5 264,-19.5 264,-0.5 148,-0.5"/>
<text text-anchor="middle" x="206" y="-7.5" font-family="Helvetica,sans-Serif" font-size="10.00">zia::api::HttpResponse</text>
</a>
</g>
</g>
<!-- Node0&#45;&gt;Node2 -->
<g id="edge2" class="edge"><title>Node0&#45;&gt;Node2</title>
<path fill="none" stroke="midnightblue" d="M122.088,-20.6442C130.675,-19.5417 139.425,-18.4184 147.865,-17.3349"/>
<polygon fill="midnightblue" stroke="midnightblue" points="121.583,-17.1802 112.11,-21.9251 122.474,-24.1232 121.583,-17.1802"/>
</g>
</g>
</svg>
