<?xml version="1.0" encoding="UTF-8" standalone="no"?>
<!DOCTYPE svg PUBLIC "-//W3C//DTD SVG 1.1//EN"
 "http://www.w3.org/Graphics/SVG/1.1/DTD/svg11.dtd">
<!-- Generated by graphviz version 2.38.0 (20140413.2041)
 -->
<!-- Title: module.h Pages: 1 -->
<svg width="396pt" height="196pt"
 viewBox="0.00 0.00 396.00 196.00" xmlns="http://www.w3.org/2000/svg" xmlns:xlink="http://www.w3.org/1999/xlink">
<g id="graph0" class="graph" transform="scale(1 1) rotate(0) translate(4 192)">
<title>module.h</title>
<polygon fill="white" stroke="none" points="-4,4 -4,-192 392,-192 392,4 -4,4"/>
<!-- Node0 -->
<g id="node1" class="node"><title>Node0</title>
<polygon fill="#bfbfbf" stroke="black" points="220,-168.5 220,-187.5 276,-187.5 276,-168.5 220,-168.5"/>
<text text-anchor="middle" x="248" y="-175.5" font-family="Helvetica,sans-Serif" font-size="10.00">module.h</text>
</g>
<!-- Node1 -->
<g id="node2" class="node"><title>Node1</title>
<g id="a_node2"><a xlink:href="conf_8h.html" target="_top" xlink:title="conf.h">
<polygon fill="white" stroke="black" points="256.5,-112.5 256.5,-131.5 299.5,-131.5 299.5,-112.5 256.5,-112.5"/>
<text text-anchor="middle" x="278" y="-119.5" font-family="Helvetica,sans-Serif" font-size="10.00">conf.h</text>
</a>
</g>
</g>
<!-- Node0&#45;&gt;Node1 -->
<g id="edge1" class="edge"><title>Node0&#45;&gt;Node1</title>
<path fill="none" stroke="midnightblue" d="M252.954,-168.083C257.104,-160.613 263.153,-149.724 268.267,-140.52"/>
<polygon fill="midnightblue" stroke="midnightblue" points="271.341,-142.192 273.138,-131.751 265.222,-138.793 271.341,-142.192"/>
</g>
<!-- Node6 -->
<g id="node7" class="node"><title>Node6</title>
<g id="a_node7"><a xlink:href="http_8h.html" target="_top" xlink:title="http.h">
<polygon fill="white" stroke="black" points="181.5,-112.5 181.5,-131.5 222.5,-131.5 222.5,-112.5 181.5,-112.5"/>
<text text-anchor="middle" x="202" y="-119.5" font-family="Helvetica,sans-Serif" font-size="10.00">http.h</text>
</a>
</g>
</g>
<!-- Node0&#45;&gt;Node6 -->
<g id="edge6" class="edge"><title>Node0&#45;&gt;Node6</title>
<path fill="none" stroke="midnightblue" d="M240.404,-168.083C233.773,-160.298 223.979,-148.801 215.942,-139.367"/>
<polygon fill="midnightblue" stroke="midnightblue" points="218.604,-137.094 209.455,-131.751 213.275,-141.633 218.604,-137.094"/>
</g>
<!-- Node2 -->
<g id="node3" class="node"><title>Node2</title>
<polygon fill="white" stroke="#bfbfbf" points="214.5,-56.5 214.5,-75.5 249.5,-75.5 249.5,-56.5 214.5,-56.5"/>
<text text-anchor="middle" x="232" y="-63.5" font-family="Helvetica,sans-Serif" font-size="10.00">map</text>
</g>
<!-- Node1&#45;&gt;Node2 -->
<g id="edge2" class="edge"><title>Node1&#45;&gt;Node2</title>
<path fill="none" stroke="midnightblue" d="M270.404,-112.083C263.773,-104.298 253.979,-92.8015 245.942,-83.3665"/>
<polygon fill="midnightblue" stroke="midnightblue" points="248.604,-81.0939 239.455,-75.7511 243.275,-85.6332 248.604,-81.0939"/>
</g>
<!-- Node3 -->
<g id="node4" class="node"><title>Node3</title>
<polygon fill="white" stroke="#bfbfbf" points="194.5,-0.5 194.5,-19.5 235.5,-19.5 235.5,-0.5 194.5,-0.5"/>
<text text-anchor="middle" x="215" y="-7.5" font-family="Helvetica,sans-Serif" font-size="10.00">string</text>
</g>
<!-- Node1&#45;&gt;Node3 -->
<g id="edge3" class="edge"><title>Node1&#45;&gt;Node3</title>
<path fill="none" stroke="midnightblue" d="M276.679,-112.492C274.395,-99.5681 268.874,-74.534 258,-56 251.536,-44.9819 241.872,-34.5436 233.342,-26.4992"/>
<polygon fill="midnightblue" stroke="midnightblue" points="235.427,-23.6673 225.653,-19.5793 230.745,-28.8705 235.427,-23.6673"/>
</g>
<!-- Node4 -->
<g id="node5" class="node"><title>Node4</title>
<polygon fill="white" stroke="#bfbfbf" points="344,-56.5 344,-75.5 388,-75.5 388,-56.5 344,-56.5"/>
<text text-anchor="middle" x="366" y="-63.5" font-family="Helvetica,sans-Serif" font-size="10.00">variant</text>
</g>
<!-- Node1&#45;&gt;Node4 -->
<g id="edge4" class="edge"><title>Node1&#45;&gt;Node4</title>
<path fill="none" stroke="midnightblue" d="M292.139,-112.324C305.866,-103.9 326.936,-90.9709 343.064,-81.0741"/>
<polygon fill="midnightblue" stroke="midnightblue" points="345.204,-83.8678 351.896,-75.6545 341.543,-77.9016 345.204,-83.8678"/>
</g>
<!-- Node5 -->
<g id="node6" class="node"><title>Node5</title>
<polygon fill="white" stroke="#bfbfbf" points="268,-0.5 268,-19.5 310,-19.5 310,-0.5 268,-0.5"/>
<text text-anchor="middle" x="289" y="-7.5" font-family="Helvetica,sans-Serif" font-size="10.00">vector</text>
</g>
<!-- Node1&#45;&gt;Node5 -->
<g id="edge5" class="edge"><title>Node1&#45;&gt;Node5</title>
<path fill="none" stroke="midnightblue" d="M281.6,-112.222C285.056,-103.285 290.033,-88.9424 292,-76 294.337,-60.6241 293.292,-42.9874 291.828,-29.9684"/>
<polygon fill="midnightblue" stroke="midnightblue" points="295.277,-29.3494 290.507,-19.889 288.336,-30.259 295.277,-29.3494"/>
</g>
<!-- Node6&#45;&gt;Node2 -->
<g id="edge13" class="edge"><title>Node6&#45;&gt;Node2</title>
<path fill="none" stroke="midnightblue" d="M206.954,-112.083C211.104,-104.613 217.153,-93.7244 222.267,-84.5199"/>
<polygon fill="midnightblue" stroke="midnightblue" points="225.341,-86.1924 227.138,-75.7511 219.222,-82.7929 225.341,-86.1924"/>
</g>
<!-- Node6&#45;&gt;Node3 -->
<g id="edge14" class="edge"><title>Node6&#45;&gt;Node3</title>
<path fill="none" stroke="midnightblue" d="M201.927,-112.126C201.932,-99.5711 202.346,-75.9322 205,-56 206.177,-47.1646 208.222,-37.4996 210.158,-29.3992"/>
<polygon fill="midnightblue" stroke="midnightblue" points="213.591,-30.0997 212.638,-19.5478 206.802,-28.391 213.591,-30.0997"/>
</g>
<!-- Node7 -->
<g id="node8" class="node"><title>Node7</title>
<g id="a_node8"><a xlink:href="net_8h.html" target="_top" xlink:title="net.h">
<polygon fill="white" stroke="black" points="120,-56.5 120,-75.5 158,-75.5 158,-56.5 120,-56.5"/>
<text text-anchor="middle" x="139" y="-63.5" font-family="Helvetica,sans-Serif" font-size="10.00">net.h</text>
</a>
</g>
</g>
<!-- Node6&#45;&gt;Node7 -->
<g id="edge7" class="edge"><title>Node6&#45;&gt;Node7</title>
<path fill="none" stroke="midnightblue" d="M191.878,-112.324C182.474,-104.263 168.256,-92.0765 156.931,-82.3695"/>
<polygon fill="midnightblue" stroke="midnightblue" points="159.177,-79.6844 149.306,-75.8339 154.621,-84.9993 159.177,-79.6844"/>
</g>
<!-- Node7&#45;&gt;Node3 -->
<g id="edge11" class="edge"><title>Node7&#45;&gt;Node3</title>
<path fill="none" stroke="midnightblue" d="M151.211,-56.324C162.776,-48.1066 180.375,-35.6017 194.161,-25.8069"/>
<polygon fill="midnightblue" stroke="midnightblue" points="196.443,-28.4791 202.567,-19.8339 192.388,-22.7729 196.443,-28.4791"/>
</g>
<!-- Node7&#45;&gt;Node5 -->
<g id="edge12" class="edge"><title>Node7&#45;&gt;Node5</title>
<path fill="none" stroke="midnightblue" d="M158.303,-58.051C183.611,-48.9401 228.303,-32.8509 258.285,-22.0575"/>
<polygon fill="midnightblue" stroke="midnightblue" points="259.616,-25.2983 267.839,-18.6179 257.245,-18.712 259.616,-25.2983"/>
</g>
<!-- Node8 -->
<g id="node9" class="node"><title>Node8</title>
<polygon fill="white" stroke="#bfbfbf" points="130,-0.5 130,-19.5 176,-19.5 176,-0.5 130,-0.5"/>
<text text-anchor="middle" x="153" y="-7.5" font-family="Helvetica,sans-Serif" font-size="10.00">chrono</text>
</g>
<!-- Node7&#45;&gt;Node8 -->
<g id="edge8" class="edge"><title>Node7&#45;&gt;Node8</title>
<path fill="none" stroke="midnightblue" d="M141.312,-56.083C143.167,-48.9272 145.835,-38.6353 148.154,-29.6911"/>
<polygon fill="midnightblue" stroke="midnightblue" points="151.609,-30.3094 150.731,-19.7511 144.834,-28.5527 151.609,-30.3094"/>
</g>
<!-- Node9 -->
<g id="node10" class="node"><title>Node9</title>
<polygon fill="white" stroke="#bfbfbf" points="0,-0.5 0,-19.5 48,-19.5 48,-0.5 0,-0.5"/>
<text text-anchor="middle" x="24" y="-7.5" font-family="Helvetica,sans-Serif" font-size="10.00">cstddef</text>
</g>
<!-- Node7&#45;&gt;Node9 -->
<g id="edge9" class="edge"><title>Node7&#45;&gt;Node9</title>
<path fill="none" stroke="midnightblue" d="M120.778,-56.4435C102.104,-47.6751 72.844,-33.9355 51.3826,-23.8579"/>
<polygon fill="midnightblue" stroke="midnightblue" points="52.6763,-20.5988 42.1368,-19.5164 49.7009,-26.935 52.6763,-20.5988"/>
</g>
<!-- Node10 -->
<g id="node11" class="node"><title>Node10</title>
<polygon fill="white" stroke="#bfbfbf" points="66,-0.5 66,-19.5 112,-19.5 112,-0.5 66,-0.5"/>
<text text-anchor="middle" x="89" y="-7.5" font-family="Helvetica,sans-Serif" font-size="10.00">cstdint</text>
</g>
<!-- Node7&#45;&gt;Node10 -->
<g id="edge10" class="edge"><title>Node7&#45;&gt;Node10</title>
<path fill="none" stroke="midnightblue" d="M130.744,-56.083C123.535,-48.2982 112.89,-36.8015 104.154,-27.3665"/>
<polygon fill="midnightblue" stroke="midnightblue" points="106.465,-24.7108 97.1028,-19.7511 101.329,-29.4666 106.465,-24.7108"/>
</g>
</g>
</svg>
