<?xml version="1.0" encoding="UTF-8" standalone="no"?>
<!DOCTYPE svg PUBLIC "-//W3C//DTD SVG 1.1//EN"
 "http://www.w3.org/Graphics/SVG/1.1/DTD/svg11.dtd">
<!-- Generated by graphviz version 2.38.0 (20140413.2041)
 -->
<!-- Title: module.h Pages: 1 -->
<svg width="431pt" height="196pt"
 viewBox="0.00 0.00 431.00 196.00" xmlns="http://www.w3.org/2000/svg" xmlns:xlink="http://www.w3.org/1999/xlink">
<g id="graph0" class="graph" transform="scale(1 1) rotate(0) translate(4 192)">
<title>module.h</title>
<polygon fill="white" stroke="none" points="-4,4 -4,-192 427,-192 427,4 -4,4"/>
<!-- Node0 -->
<g id="node1" class="node"><title>Node0</title>
<polygon fill="#bfbfbf" stroke="black" points="255,-168.5 255,-187.5 311,-187.5 311,-168.5 255,-168.5"/>
<text text-anchor="middle" x="283" y="-175.5" font-family="Helvetica,sans-Serif" font-size="10.00">module.h</text>
</g>
<!-- Node1 -->
<g id="node2" class="node"><title>Node1</title>
<g id="a_node2"><a xlink:href="conf_8h.html" target="_top" xlink:title="conf.h">
<polygon fill="white" stroke="black" points="291.5,-112.5 291.5,-131.5 334.5,-131.5 334.5,-112.5 291.5,-112.5"/>
<text text-anchor="middle" x="313" y="-119.5" font-family="Helvetica,sans-Serif" font-size="10.00">conf.h</text>
</a>
</g>
</g>
<!-- Node0&#45;&gt;Node1 -->
<g id="edge1" class="edge"><title>Node0&#45;&gt;Node1</title>
<path fill="none" stroke="midnightblue" d="M287.954,-168.083C292.104,-160.613 298.153,-149.724 303.267,-140.52"/>
<polygon fill="midnightblue" stroke="midnightblue" points="306.341,-142.192 308.138,-131.751 300.222,-138.793 306.341,-142.192"/>
</g>
<!-- Node6 -->
<g id="node7" class="node"><title>Node6</title>
<g id="a_node7"><a xlink:href="http_8h.html" target="_top" xlink:title="http.h">
<polygon fill="white" stroke="black" points="216.5,-112.5 216.5,-131.5 257.5,-131.5 257.5,-112.5 216.5,-112.5"/>
<text text-anchor="middle" x="237" y="-119.5" font-family="Helvetica,sans-Serif" font-size="10.00">http.h</text>
</a>
</g>
</g>
<!-- Node0&#45;&gt;Node6 -->
<g id="edge6" class="edge"><title>Node0&#45;&gt;Node6</title>
<path fill="none" stroke="midnightblue" d="M275.404,-168.083C268.773,-160.298 258.979,-148.801 250.942,-139.367"/>
<polygon fill="midnightblue" stroke="midnightblue" points="253.604,-137.094 244.455,-131.751 248.275,-141.633 253.604,-137.094"/>
</g>
<!-- Node2 -->
<g id="node3" class="node"><title>Node2</title>
<polygon fill="white" stroke="#bfbfbf" points="249.5,-56.5 249.5,-75.5 284.5,-75.5 284.5,-56.5 249.5,-56.5"/>
<text text-anchor="middle" x="267" y="-63.5" font-family="Helvetica,sans-Serif" font-size="10.00">map</text>
</g>
<!-- Node1&#45;&gt;Node2 -->
<g id="edge2" class="edge"><title>Node1&#45;&gt;Node2</title>
<path fill="none" stroke="midnightblue" d="M305.404,-112.083C298.773,-104.298 288.979,-92.8015 280.942,-83.3665"/>
<polygon fill="midnightblue" stroke="midnightblue" points="283.604,-81.0939 274.455,-75.7511 278.275,-85.6332 283.604,-81.0939"/>
</g>
<!-- Node3 -->
<g id="node4" class="node"><title>Node3</title>
<polygon fill="white" stroke="#bfbfbf" points="270.5,-0.5 270.5,-19.5 311.5,-19.5 311.5,-0.5 270.5,-0.5"/>
<text text-anchor="middle" x="291" y="-7.5" font-family="Helvetica,sans-Serif" font-size="10.00">string</text>
</g>
<!-- Node1&#45;&gt;Node3 -->
<g id="edge3" class="edge"><title>Node1&#45;&gt;Node3</title>
<path fill="none" stroke="midnightblue" d="M311.274,-112.368C307.723,-94.617 299.533,-53.6664 294.719,-29.5974"/>
<polygon fill="midnightblue" stroke="midnightblue" points="298.112,-28.7108 292.718,-19.5914 291.247,-30.0837 298.112,-28.7108"/>
</g>
<!-- Node4 -->
<g id="node5" class="node"><title>Node4</title>
<polygon fill="white" stroke="#bfbfbf" points="379,-56.5 379,-75.5 423,-75.5 423,-56.5 379,-56.5"/>
<text text-anchor="middle" x="401" y="-63.5" font-family="Helvetica,sans-Serif" font-size="10.00">variant</text>
</g>
<!-- Node1&#45;&gt;Node4 -->
<g id="edge4" class="edge"><title>Node1&#45;&gt;Node4</title>
<path fill="none" stroke="midnightblue" d="M327.139,-112.324C340.866,-103.9 361.936,-90.9709 378.064,-81.0741"/>
<polygon fill="midnightblue" stroke="midnightblue" points="380.204,-83.8678 386.896,-75.6545 376.543,-77.9016 380.204,-83.8678"/>
</g>
<!-- Node5 -->
<g id="node6" class="node"><title>Node5</title>
<polygon fill="white" stroke="#bfbfbf" points="330,-0.5 330,-19.5 372,-19.5 372,-0.5 330,-0.5"/>
<text text-anchor="middle" x="351" y="-7.5" font-family="Helvetica,sans-Serif" font-size="10.00">vector</text>
</g>
<!-- Node1&#45;&gt;Node5 -->
<g id="edge5" class="edge"><title>Node1&#45;&gt;Node5</title>
<path fill="none" stroke="midnightblue" d="M315.982,-112.368C322.142,-94.5366 336.389,-53.2953 344.688,-29.2717"/>
<polygon fill="midnightblue" stroke="midnightblue" points="348.075,-30.1862 348.032,-19.5914 341.459,-27.9005 348.075,-30.1862"/>
</g>
<!-- Node6&#45;&gt;Node2 -->
<g id="edge14" class="edge"><title>Node6&#45;&gt;Node2</title>
<path fill="none" stroke="midnightblue" d="M241.954,-112.083C246.104,-104.613 252.153,-93.7244 257.267,-84.5199"/>
<polygon fill="midnightblue" stroke="midnightblue" points="260.341,-86.1924 262.138,-75.7511 254.222,-82.7929 260.341,-86.1924"/>
</g>
<!-- Node6&#45;&gt;Node3 -->
<g id="edge15" class="edge"><title>Node6&#45;&gt;Node3</title>
<path fill="none" stroke="midnightblue" d="M235.379,-112.494C233.346,-99.5717 231.113,-74.5403 240,-56 245.981,-43.5218 257.173,-33.0381 267.552,-25.3376"/>
<polygon fill="midnightblue" stroke="midnightblue" points="269.707,-28.1032 275.947,-19.5412 265.73,-22.3429 269.707,-28.1032"/>
</g>
<!-- Node7 -->
<g id="node8" class="node"><title>Node7</title>
<g id="a_node8"><a xlink:href="net_8h.html" target="_top" xlink:title="net.h">
<polygon fill="white" stroke="black" points="155,-56.5 155,-75.5 193,-75.5 193,-56.5 155,-56.5"/>
<text text-anchor="middle" x="174" y="-63.5" font-family="Helvetica,sans-Serif" font-size="10.00">net.h</text>
</a>
</g>
</g>
<!-- Node6&#45;&gt;Node7 -->
<g id="edge7" class="edge"><title>Node6&#45;&gt;Node7</title>
<path fill="none" stroke="midnightblue" d="M226.878,-112.324C217.474,-104.263 203.256,-92.0765 191.931,-82.3695"/>
<polygon fill="midnightblue" stroke="midnightblue" points="194.177,-79.6844 184.306,-75.8339 189.621,-84.9993 194.177,-79.6844"/>
</g>
<!-- Node7&#45;&gt;Node3 -->
<g id="edge12" class="edge"><title>Node7&#45;&gt;Node3</title>
<path fill="none" stroke="midnightblue" d="M192.539,-56.4435C211.623,-47.6356 241.575,-33.8116 263.436,-23.722"/>
<polygon fill="midnightblue" stroke="midnightblue" points="264.935,-26.8849 272.548,-19.5164 262.001,-20.5292 264.935,-26.8849"/>
</g>
<!-- Node7&#45;&gt;Node5 -->
<g id="edge13" class="edge"><title>Node7&#45;&gt;Node5</title>
<path fill="none" stroke="midnightblue" d="M193.279,-59.1183C223.827,-49.7985 283.63,-31.5536 320.179,-20.403"/>
<polygon fill="midnightblue" stroke="midnightblue" points="321.284,-23.7252 329.828,-17.4594 319.241,-17.0299 321.284,-23.7252"/>
</g>
<!-- Node8 -->
<g id="node9" class="node"><title>Node8</title>
<polygon fill="white" stroke="#bfbfbf" points="0,-0.5 0,-19.5 46,-19.5 46,-0.5 0,-0.5"/>
<text text-anchor="middle" x="23" y="-7.5" font-family="Helvetica,sans-Serif" font-size="10.00">chrono</text>
</g>
<!-- Node7&#45;&gt;Node8 -->
<g id="edge8" class="edge"><title>Node7&#45;&gt;Node8</title>
<path fill="none" stroke="midnightblue" d="M154.876,-58.1609C129.992,-49.2621 86.1269,-33.5752 55.8616,-22.7518"/>
<polygon fill="midnightblue" stroke="midnightblue" points="56.7608,-19.3564 46.1662,-19.2846 54.4036,-25.9476 56.7608,-19.3564"/>
</g>
<!-- Node9 -->
<g id="node10" class="node"><title>Node9</title>
<polygon fill="white" stroke="#bfbfbf" points="64,-0.5 64,-19.5 112,-19.5 112,-0.5 64,-0.5"/>
<text text-anchor="middle" x="88" y="-7.5" font-family="Helvetica,sans-Serif" font-size="10.00">cstddef</text>
</g>
<!-- Node7&#45;&gt;Node9 -->
<g id="edge9" class="edge"><title>Node7&#45;&gt;Node9</title>
<path fill="none" stroke="midnightblue" d="M160.183,-56.324C146.767,-47.9002 126.176,-34.9709 110.414,-25.0741"/>
<polygon fill="midnightblue" stroke="midnightblue" points="112.113,-22.0081 101.783,-19.6545 108.391,-27.9364 112.113,-22.0081"/>
</g>
<!-- Node10 -->
<g id="node11" class="node"><title>Node10</title>
<polygon fill="white" stroke="#bfbfbf" points="130,-0.5 130,-19.5 176,-19.5 176,-0.5 130,-0.5"/>
<text text-anchor="middle" x="153" y="-7.5" font-family="Helvetica,sans-Serif" font-size="10.00">cstdint</text>
</g>
<!-- Node7&#45;&gt;Node10 -->
<g id="edge10" class="edge"><title>Node7&#45;&gt;Node10</title>
<path fill="none" stroke="midnightblue" d="M170.532,-56.083C167.688,-48.77 163.571,-38.1814 160.04,-29.1034"/>
<polygon fill="midnightblue" stroke="midnightblue" points="163.29,-27.8025 156.403,-19.7511 156.766,-30.3397 163.29,-27.8025"/>
</g>
<!-- Node11 -->
<g id="node12" class="node"><title>Node11</title>
<polygon fill="white" stroke="#bfbfbf" points="194,-0.5 194,-19.5 252,-19.5 252,-0.5 194,-0.5"/>
<text text-anchor="middle" x="223" y="-7.5" font-family="Helvetica,sans-Serif" font-size="10.00">functional</text>
</g>
<!-- Node7&#45;&gt;Node11 -->
<g id="edge11" class="edge"><title>Node7&#45;&gt;Node11</title>
<path fill="none" stroke="midnightblue" d="M182.091,-56.083C189.155,-48.2982 199.588,-36.8015 208.149,-27.3665"/>
<polygon fill="midnightblue" stroke="midnightblue" points="210.931,-29.5087 215.059,-19.7511 205.747,-24.8047 210.931,-29.5087"/>
</g>
</g>
</svg>
