<?xml version="1.0" encoding="UTF-8" standalone="no"?>
<!DOCTYPE svg PUBLIC "-//W3C//DTD SVG 1.1//EN"
 "http://www.w3.org/Graphics/SVG/1.1/DTD/svg11.dtd">
<!-- Generated by graphviz version 2.38.0 (20140413.2041)
 -->
<!-- Title: net.h Pages: 1 -->
<svg width="380pt" height="84pt"
 viewBox="0.00 0.00 380.00 84.00" xmlns="http://www.w3.org/2000/svg" xmlns:xlink="http://www.w3.org/1999/xlink">
<g id="graph0" class="graph" transform="scale(1 1) rotate(0) translate(4 80)">
<title>net.h</title>
<polygon fill="white" stroke="none" points="-4,4 -4,-80 376,-80 376,4 -4,4"/>
<!-- Node0 -->
<g id="node1" class="node"><title>Node0</title>
<polygon fill="#bfbfbf" stroke="black" points="169,-56.5 169,-75.5 207,-75.5 207,-56.5 169,-56.5"/>
<text text-anchor="middle" x="188" y="-63.5" font-family="Helvetica,sans-Serif" font-size="10.00">net.h</text>
</g>
<!-- Node1 -->
<g id="node2" class="node"><title>Node1</title>
<polygon fill="white" stroke="#bfbfbf" points="0,-0.5 0,-19.5 46,-19.5 46,-0.5 0,-0.5"/>
<text text-anchor="middle" x="23" y="-7.5" font-family="Helvetica,sans-Serif" font-size="10.00">chrono</text>
</g>
<!-- Node0&#45;&gt;Node1 -->
<g id="edge1" class="edge"><title>Node0&#45;&gt;Node1</title>
<path fill="none" stroke="midnightblue" d="M168.749,-58.6998C141.092,-49.6483 89.7329,-32.8399 55.9615,-21.7874"/>
<polygon fill="midnightblue" stroke="midnightblue" points="56.6838,-18.3412 46.0911,-18.5571 54.5065,-24.9939 56.6838,-18.3412"/>
</g>
<!-- Node2 -->
<g id="node3" class="node"><title>Node2</title>
<polygon fill="white" stroke="#bfbfbf" points="64,-0.5 64,-19.5 112,-19.5 112,-0.5 64,-0.5"/>
<text text-anchor="middle" x="88" y="-7.5" font-family="Helvetica,sans-Serif" font-size="10.00">cstddef</text>
</g>
<!-- Node0&#45;&gt;Node2 -->
<g id="edge2" class="edge"><title>Node0&#45;&gt;Node2</title>
<path fill="none" stroke="midnightblue" d="M171.933,-56.324C156.042,-47.7428 131.493,-34.486 113.042,-24.5224"/>
<polygon fill="midnightblue" stroke="midnightblue" points="114.489,-21.3264 104.027,-19.6545 111.163,-27.4857 114.489,-21.3264"/>
</g>
<!-- Node3 -->
<g id="node4" class="node"><title>Node3</title>
<polygon fill="white" stroke="#bfbfbf" points="130,-0.5 130,-19.5 176,-19.5 176,-0.5 130,-0.5"/>
<text text-anchor="middle" x="153" y="-7.5" font-family="Helvetica,sans-Serif" font-size="10.00">cstdint</text>
</g>
<!-- Node0&#45;&gt;Node3 -->
<g id="edge3" class="edge"><title>Node0&#45;&gt;Node3</title>
<path fill="none" stroke="midnightblue" d="M182.22,-56.083C177.328,-48.5341 170.173,-37.4948 164.167,-28.2298"/>
<polygon fill="midnightblue" stroke="midnightblue" points="167.048,-26.239 158.672,-19.7511 161.174,-30.0463 167.048,-26.239"/>
</g>
<!-- Node4 -->
<g id="node5" class="node"><title>Node4</title>
<polygon fill="white" stroke="#bfbfbf" points="194,-0.5 194,-19.5 252,-19.5 252,-0.5 194,-0.5"/>
<text text-anchor="middle" x="223" y="-7.5" font-family="Helvetica,sans-Serif" font-size="10.00">functional</text>
</g>
<!-- Node0&#45;&gt;Node4 -->
<g id="edge4" class="edge"><title>Node0&#45;&gt;Node4</title>
<path fill="none" stroke="midnightblue" d="M193.78,-56.083C198.672,-48.5341 205.827,-37.4948 211.833,-28.2298"/>
<polygon fill="midnightblue" stroke="midnightblue" points="214.826,-30.0463 217.328,-19.7511 208.952,-26.239 214.826,-30.0463"/>
</g>
<!-- Node5 -->
<g id="node6" class="node"><title>Node5</title>
<polygon fill="white" stroke="#bfbfbf" points="270.5,-0.5 270.5,-19.5 311.5,-19.5 311.5,-0.5 270.5,-0.5"/>
<text text-anchor="middle" x="291" y="-7.5" font-family="Helvetica,sans-Serif" font-size="10.00">string</text>
</g>
<!-- Node0&#45;&gt;Node5 -->
<g id="edge5" class="edge"><title>Node0&#45;&gt;Node5</title>
<path fill="none" stroke="midnightblue" d="M204.549,-56.324C220.992,-47.7034 246.435,-34.3643 265.468,-24.3855"/>
<polygon fill="midnightblue" stroke="midnightblue" points="267.261,-27.3977 274.492,-19.6545 264.011,-21.198 267.261,-27.3977"/>
</g>
<!-- Node6 -->
<g id="node7" class="node"><title>Node6</title>
<polygon fill="white" stroke="#bfbfbf" points="330,-0.5 330,-19.5 372,-19.5 372,-0.5 330,-0.5"/>
<text text-anchor="middle" x="351" y="-7.5" font-family="Helvetica,sans-Serif" font-size="10.00">vector</text>
</g>
<!-- Node0&#45;&gt;Node6 -->
<g id="edge6" class="edge"><title>Node0&#45;&gt;Node6</title>
<path fill="none" stroke="midnightblue" d="M207.017,-58.6998C234.796,-49.497 286.778,-32.2759 320.096,-21.2381"/>
<polygon fill="midnightblue" stroke="midnightblue" points="321.397,-24.4942 329.789,-18.0269 319.196,-17.8493 321.397,-24.4942"/>
</g>
</g>
</svg>
