<?xml version="1.0" encoding="UTF-8" standalone="no"?>
<!DOCTYPE svg PUBLIC "-//W3C//DTD SVG 1.1//EN"
 "http://www.w3.org/Graphics/SVG/1.1/DTD/svg11.dtd">
<!-- Generated by graphviz version 2.38.0 (20140413.2041)
 -->
<!-- Title: net.h Pages: 1 -->
<svg width="64pt" height="140pt"
 viewBox="0.00 0.00 64.00 140.00" xmlns="http://www.w3.org/2000/svg" xmlns:xlink="http://www.w3.org/1999/xlink">
<g id="graph0" class="graph" transform="scale(1 1) rotate(0) translate(4 136)">
<title>net.h</title>
<polygon fill="white" stroke="none" points="-4,4 -4,-136 60,-136 60,4 -4,4"/>
<!-- Node7 -->
<g id="node1" class="node"><title>Node7</title>
<polygon fill="#bfbfbf" stroke="black" points="9,-112.5 9,-131.5 47,-131.5 47,-112.5 9,-112.5"/>
<text text-anchor="middle" x="28" y="-119.5" font-family="Helvetica,sans-Serif" font-size="10.00">net.h</text>
</g>
<!-- Node8 -->
<g id="node2" class="node"><title>Node8</title>
<g id="a_node2"><a xlink:href="http_8h.html" target="_top" xlink:title="http.h">
<polygon fill="white" stroke="black" points="7.5,-56.5 7.5,-75.5 48.5,-75.5 48.5,-56.5 7.5,-56.5"/>
<text text-anchor="middle" x="28" y="-63.5" font-family="Helvetica,sans-Serif" font-size="10.00">http.h</text>
</a>
</g>
</g>
<!-- Node7&#45;&gt;Node8 -->
<g id="edge1" class="edge"><title>Node7&#45;&gt;Node8</title>
<path fill="none" stroke="midnightblue" d="M28,-101.805C28,-92.9102 28,-82.7798 28,-75.7511"/>
<polygon fill="midnightblue" stroke="midnightblue" points="24.5001,-102.083 28,-112.083 31.5001,-102.083 24.5001,-102.083"/>
</g>
<!-- Node9 -->
<g id="node3" class="node"><title>Node9</title>
<g id="a_node3"><a xlink:href="module_8h.html" target="_top" xlink:title="module.h">
<polygon fill="white" stroke="black" points="0,-0.5 0,-19.5 56,-19.5 56,-0.5 0,-0.5"/>
<text text-anchor="middle" x="28" y="-7.5" font-family="Helvetica,sans-Serif" font-size="10.00">module.h</text>
</a>
</g>
</g>
<!-- Node8&#45;&gt;Node9 -->
<g id="edge2" class="edge"><title>Node8&#45;&gt;Node9</title>
<path fill="none" stroke="midnightblue" d="M28,-45.8045C28,-36.9102 28,-26.7798 28,-19.7511"/>
<polygon fill="midnightblue" stroke="midnightblue" points="24.5001,-46.083 28,-56.083 31.5001,-46.083 24.5001,-46.083"/>
</g>
</g>
</svg>
