<?xml version="1.0" encoding="UTF-8" standalone="no"?>
<!DOCTYPE svg PUBLIC "-//W3C//DTD SVG 1.1//EN"
 "http://www.w3.org/Graphics/SVG/1.1/DTD/svg11.dtd">
<!-- Generated by graphviz version 2.38.0 (20140413.2041)
 -->
<!-- Title: zia::api::HttpResponse Pages: 1 -->
<svg width="412pt" height="182pt"
 viewBox="0.00 0.00 411.50 182.00" xmlns="http://www.w3.org/2000/svg" xmlns:xlink="http://www.w3.org/1999/xlink">
<g id="graph0" class="graph" transform="scale(1 1) rotate(0) translate(4 178)">
<title>zia::api::HttpResponse</title>
<polygon fill="white" stroke="none" points="-4,4 -4,-178 407.5,-178 407.5,4 -4,4"/>
<!-- Node1 -->
<g id="node1" class="node"><title>Node1</title>
<polygon fill="#bfbfbf" stroke="black" points="141.5,-0.5 141.5,-57.5 257.5,-57.5 257.5,-0.5 141.5,-0.5"/>
<text text-anchor="middle" x="199.5" y="-45.5" font-family="Helvetica,sans-Serif" font-size="10.00">zia::api::HttpResponse</text>
<polyline fill="none" stroke="black" points="141.5,-38.5 257.5,-38.5 "/>
<text text-anchor="middle" x="199.5" y="-26.5" font-family="Helvetica,sans-Serif" font-size="10.00"> </text>
<polyline fill="none" stroke="black" points="141.5,-19.5 257.5,-19.5 "/>
<text text-anchor="middle" x="199.5" y="-7.5" font-family="Helvetica,sans-Serif" font-size="10.00"> </text>
</g>
<!-- Node2 -->
<g id="node2" class="node"><title>Node2</title>
<polygon fill="white" stroke="#bfbfbf" points="0,-105.5 0,-173.5 107,-173.5 107,-105.5 0,-105.5"/>
<text text-anchor="start" x="8" y="-161.5" font-family="Helvetica,sans-Serif" font-size="10.00">map&lt; std::string, std</text>
<text text-anchor="middle" x="53.5" y="-150.5" font-family="Helvetica,sans-Serif" font-size="10.00">::string &gt;</text>
<polyline fill="none" stroke="#bfbfbf" points="0,-143.5 107,-143.5 "/>
<text text-anchor="middle" x="53.5" y="-131.5" font-family="Helvetica,sans-Serif" font-size="10.00"> </text>
<polyline fill="none" stroke="#bfbfbf" points="0,-124.5 107,-124.5 "/>
<text text-anchor="middle" x="53.5" y="-112.5" font-family="Helvetica,sans-Serif" font-size="10.00"> </text>
</g>
<!-- Node2&#45;&gt;Node1 -->
<g id="edge1" class="edge"><title>Node2&#45;&gt;Node1</title>
<path fill="none" stroke="#404040" d="M77.3853,-105.308C85.807,-95.0755 95.8511,-84.3228 106.5,-76 113.885,-70.2285 122.109,-64.9029 130.527,-60.0802"/>
<polygon fill="none" stroke="#404040" points="130.706,-59.9831 134.062,-53.601 141.245,-54.2449 137.888,-60.6271 130.706,-59.9831"/>
<text text-anchor="middle" x="128.5" y="-79" font-family="Helvetica,sans-Serif" font-size="10.00"> +headers</text>
</g>
<!-- Node3 -->
<g id="node3" class="node"><title>Node3</title>
<polygon fill="white" stroke="#bfbfbf" points="125,-111 125,-168 154,-168 154,-111 125,-111"/>
<text text-anchor="middle" x="139.5" y="-156" font-family="Helvetica,sans-Serif" font-size="10.00">int</text>
<polyline fill="none" stroke="#bfbfbf" points="125,-149 154,-149 "/>
<text text-anchor="middle" x="139.5" y="-137" font-family="Helvetica,sans-Serif" font-size="10.00"> </text>
<polyline fill="none" stroke="#bfbfbf" points="125,-130 154,-130 "/>
<text text-anchor="middle" x="139.5" y="-118" font-family="Helvetica,sans-Serif" font-size="10.00"> </text>
</g>
<!-- Node3&#45;&gt;Node1 -->
<g id="edge2" class="edge"><title>Node3&#45;&gt;Node1</title>
<path fill="none" stroke="#404040" d="M145.196,-110.694C148.186,-99.4728 152.504,-86.6803 158.5,-76 160.114,-73.1257 161.933,-70.2769 163.885,-67.4891"/>
<polygon fill="none" stroke="#404040" points="164.082,-67.2325 164.573,-60.0381 171.403,-57.7245 170.912,-64.9188 164.082,-67.2325"/>
<text text-anchor="middle" x="177" y="-79" font-family="Helvetica,sans-Serif" font-size="10.00"> +status</text>
</g>
<!-- Node4 -->
<g id="node4" class="node"><title>Node4</title>
<polygon fill="white" stroke="#bfbfbf" points="178,-111 178,-168 219,-168 219,-111 178,-111"/>
<text text-anchor="middle" x="198.5" y="-156" font-family="Helvetica,sans-Serif" font-size="10.00">string</text>
<polyline fill="none" stroke="#bfbfbf" points="178,-149 219,-149 "/>
<text text-anchor="middle" x="198.5" y="-137" font-family="Helvetica,sans-Serif" font-size="10.00"> </text>
<polyline fill="none" stroke="#bfbfbf" points="178,-130 219,-130 "/>
<text text-anchor="middle" x="198.5" y="-118" font-family="Helvetica,sans-Serif" font-size="10.00"> </text>
</g>
<!-- Node4&#45;&gt;Node1 -->
<g id="edge3" class="edge"><title>Node4&#45;&gt;Node1</title>
<path fill="none" stroke="#404040" d="M198.755,-110.84C198.87,-98.342 199.008,-83.3424 199.134,-69.6757"/>
<polygon fill="none" stroke="#404040" points="199.135,-69.6088 195.19,-63.5722 199.246,-57.6094 203.19,-63.646 199.135,-69.6088"/>
<text text-anchor="middle" x="219" y="-79" font-family="Helvetica,sans-Serif" font-size="10.00"> +reason</text>
</g>
<!-- Node5 -->
<g id="node5" class="node"><title>Node5</title>
<polygon fill="white" stroke="#bfbfbf" points="237.5,-111 237.5,-168 287.5,-168 287.5,-111 237.5,-111"/>
<text text-anchor="middle" x="262.5" y="-156" font-family="Helvetica,sans-Serif" font-size="10.00">Version</text>
<polyline fill="none" stroke="#bfbfbf" points="237.5,-149 287.5,-149 "/>
<text text-anchor="middle" x="262.5" y="-137" font-family="Helvetica,sans-Serif" font-size="10.00"> </text>
<polyline fill="none" stroke="#bfbfbf" points="237.5,-130 287.5,-130 "/>
<text text-anchor="middle" x="262.5" y="-118" font-family="Helvetica,sans-Serif" font-size="10.00"> </text>
</g>
<!-- Node5&#45;&gt;Node1 -->
<g id="edge4" class="edge"><title>Node5&#45;&gt;Node1</title>
<path fill="none" stroke="#404040" d="M255.275,-110.713C251.717,-99.4942 246.815,-86.6988 240.5,-76 238.741,-73.0203 236.772,-70.0592 234.675,-67.1596"/>
<polygon fill="none" stroke="#404040" points="234.578,-67.0363 227.726,-64.7897 227.164,-57.6005 234.016,-59.8471 234.578,-67.0363"/>
<text text-anchor="middle" x="266.5" y="-79" font-family="Helvetica,sans-Serif" font-size="10.00"> +version</text>
</g>
<!-- Node6 -->
<g id="node6" class="node"><title>Node6</title>
<polygon fill="white" stroke="#bfbfbf" points="305.5,-111 305.5,-168 403.5,-168 403.5,-111 305.5,-111"/>
<text text-anchor="middle" x="354.5" y="-156" font-family="Helvetica,sans-Serif" font-size="10.00">vector&lt; std::byte &gt;</text>
<polyline fill="none" stroke="#bfbfbf" points="305.5,-149 403.5,-149 "/>
<text text-anchor="middle" x="354.5" y="-137" font-family="Helvetica,sans-Serif" font-size="10.00"> </text>
<polyline fill="none" stroke="#bfbfbf" points="305.5,-130 403.5,-130 "/>
<text text-anchor="middle" x="354.5" y="-118" font-family="Helvetica,sans-Serif" font-size="10.00"> </text>
</g>
<!-- Node6&#45;&gt;Node1 -->
<g id="edge5" class="edge"><title>Node6&#45;&gt;Node1</title>
<path fill="none" stroke="#404040" d="M329.658,-110.712C318.417,-99.1094 304.522,-86.0274 290.5,-76 283.649,-71.1009 276.201,-66.4339 268.615,-62.0819"/>
<polygon fill="none" stroke="#404040" points="268.356,-61.9392 261.171,-62.5469 257.846,-56.1478 265.032,-55.5402 268.356,-61.9392"/>
<text text-anchor="middle" x="320" y="-79" font-family="Helvetica,sans-Serif" font-size="10.00"> +body</text>
</g>
</g>
</svg>
