<?xml version="1.0" encoding="UTF-8" standalone="no"?>
<!DOCTYPE svg PUBLIC "-//W3C//DTD SVG 1.1//EN"
 "http://www.w3.org/Graphics/SVG/1.1/DTD/svg11.dtd">
<!-- Generated by graphviz version 2.38.0 (20140413.2041)
 -->
<!-- Title: zia::api::ConfValue Pages: 1 -->
<svg width="130pt" height="204pt"
 viewBox="0.00 0.00 130.00 204.00" xmlns="http://www.w3.org/2000/svg" xmlns:xlink="http://www.w3.org/1999/xlink">
<g id="graph0" class="graph" transform="scale(1 1) rotate(0) translate(4 200)">
<title>zia::api::ConfValue</title>
<polygon fill="white" stroke="none" points="-4,4 -4,-200 126,-200 126,4 -4,4"/>
<!-- Node1 -->
<g id="node1" class="node"><title>Node1</title>
<polygon fill="#bfbfbf" stroke="black" points="12,-0.5 12,-57.5 110,-57.5 110,-0.5 12,-0.5"/>
<text text-anchor="middle" x="61" y="-45.5" font-family="Helvetica,sans-Serif" font-size="10.00">zia::api::ConfValue</text>
<polyline fill="none" stroke="black" points="12,-38.5 110,-38.5 "/>
<text text-anchor="middle" x="61" y="-26.5" font-family="Helvetica,sans-Serif" font-size="10.00"> </text>
<polyline fill="none" stroke="black" points="12,-19.5 110,-19.5 "/>
<text text-anchor="middle" x="61" y="-7.5" font-family="Helvetica,sans-Serif" font-size="10.00"> </text>
</g>
<!-- Node2 -->
<g id="node2" class="node"><title>Node2</title>
<polygon fill="white" stroke="#bfbfbf" points="0,-105.5 0,-195.5 122,-195.5 122,-105.5 0,-105.5"/>
<text text-anchor="start" x="8" y="-183.5" font-family="Helvetica,sans-Serif" font-size="10.00">variant&lt; std::monostate,</text>
<text text-anchor="start" x="8" y="-172.5" font-family="Helvetica,sans-Serif" font-size="10.00"> ConfObject, ConfArray,</text>
<text text-anchor="start" x="8" y="-161.5" font-family="Helvetica,sans-Serif" font-size="10.00"> std::string, long long,</text>
<text text-anchor="middle" x="61" y="-150.5" font-family="Helvetica,sans-Serif" font-size="10.00"> double, bool &gt;</text>
<polyline fill="none" stroke="#bfbfbf" points="0,-143.5 122,-143.5 "/>
<text text-anchor="middle" x="61" y="-131.5" font-family="Helvetica,sans-Serif" font-size="10.00"> </text>
<polyline fill="none" stroke="#bfbfbf" points="0,-124.5 122,-124.5 "/>
<text text-anchor="middle" x="61" y="-112.5" font-family="Helvetica,sans-Serif" font-size="10.00"> </text>
</g>
<!-- Node2&#45;&gt;Node1 -->
<g id="edge1" class="edge"><title>Node2&#45;&gt;Node1</title>
<path fill="none" stroke="#404040" d="M61,-105.342C61,-93.7485 61,-81.3129 61,-69.9534"/>
<polygon fill="none" stroke="#404040" points="61.0001,-69.6879 57,-63.6879 61,-57.6879 65,-63.6878 61.0001,-69.6879"/>
<text text-anchor="middle" x="67.5" y="-79" font-family="Helvetica,sans-Serif" font-size="10.00"> +v</text>
</g>
</g>
</svg>
