<?xml version="1.0" encoding="UTF-8" standalone="no"?>
<!DOCTYPE svg PUBLIC "-//W3C//DTD SVG 1.1//EN"
 "http://www.w3.org/Graphics/SVG/1.1/DTD/svg11.dtd">
<!-- Generated by graphviz version 2.38.0 (20140413.2041)
 -->
<!-- Title: zia::api::HttpRequest Pages: 1 -->
<svg width="427pt" height="182pt"
 viewBox="0.00 0.00 426.50 182.00" xmlns="http://www.w3.org/2000/svg" xmlns:xlink="http://www.w3.org/1999/xlink">
<g id="graph0" class="graph" transform="scale(1 1) rotate(0) translate(4 178)">
<title>zia::api::HttpRequest</title>
<polygon fill="white" stroke="none" points="-4,4 -4,-178 422.5,-178 422.5,4 -4,4"/>
<!-- Node1 -->
<g id="node1" class="node"><title>Node1</title>
<polygon fill="#bfbfbf" stroke="black" points="155.5,-0.5 155.5,-57.5 263.5,-57.5 263.5,-0.5 155.5,-0.5"/>
<text text-anchor="middle" x="209.5" y="-45.5" font-family="Helvetica,sans-Serif" font-size="10.00">zia::api::HttpRequest</text>
<polyline fill="none" stroke="black" points="155.5,-38.5 263.5,-38.5 "/>
<text text-anchor="middle" x="209.5" y="-26.5" font-family="Helvetica,sans-Serif" font-size="10.00"> </text>
<polyline fill="none" stroke="black" points="155.5,-19.5 263.5,-19.5 "/>
<text text-anchor="middle" x="209.5" y="-7.5" font-family="Helvetica,sans-Serif" font-size="10.00"> </text>
</g>
<!-- Node2 -->
<g id="node2" class="node"><title>Node2</title>
<polygon fill="white" stroke="#bfbfbf" points="0,-105.5 0,-173.5 107,-173.5 107,-105.5 0,-105.5"/>
<text text-anchor="start" x="8" y="-161.5" font-family="Helvetica,sans-Serif" font-size="10.00">map&lt; std::string, std</text>
<text text-anchor="middle" x="53.5" y="-150.5" font-family="Helvetica,sans-Serif" font-size="10.00">::string &gt;</text>
<polyline fill="none" stroke="#bfbfbf" points="0,-143.5 107,-143.5 "/>
<text text-anchor="middle" x="53.5" y="-131.5" font-family="Helvetica,sans-Serif" font-size="10.00"> </text>
<polyline fill="none" stroke="#bfbfbf" points="0,-124.5 107,-124.5 "/>
<text text-anchor="middle" x="53.5" y="-112.5" font-family="Helvetica,sans-Serif" font-size="10.00"> </text>
</g>
<!-- Node2&#45;&gt;Node1 -->
<g id="edge1" class="edge"><title>Node2&#45;&gt;Node1</title>
<path fill="none" stroke="#404040" d="M91.1934,-105.42C103.123,-95.5254 116.574,-84.9393 129.5,-76 135.325,-71.9719 141.523,-67.9634 147.792,-64.0878"/>
<polygon fill="none" stroke="#404040" points="148.083,-63.9123 151.153,-57.3871 158.357,-57.711 155.287,-64.2361 148.083,-63.9123"/>
<text text-anchor="middle" x="151.5" y="-79" font-family="Helvetica,sans-Serif" font-size="10.00"> +headers</text>
</g>
<!-- Node3 -->
<g id="node3" class="node"><title>Node3</title>
<polygon fill="white" stroke="#bfbfbf" points="125,-111 125,-168 166,-168 166,-111 125,-111"/>
<text text-anchor="middle" x="145.5" y="-156" font-family="Helvetica,sans-Serif" font-size="10.00">string</text>
<polyline fill="none" stroke="#bfbfbf" points="125,-149 166,-149 "/>
<text text-anchor="middle" x="145.5" y="-137" font-family="Helvetica,sans-Serif" font-size="10.00"> </text>
<polyline fill="none" stroke="#bfbfbf" points="125,-130 166,-130 "/>
<text text-anchor="middle" x="145.5" y="-118" font-family="Helvetica,sans-Serif" font-size="10.00"> </text>
</g>
<!-- Node3&#45;&gt;Node1 -->
<g id="edge2" class="edge"><title>Node3&#45;&gt;Node1</title>
<path fill="none" stroke="#404040" d="M161.815,-110.84C169.489,-97.8319 178.76,-82.1138 187.08,-68.0092"/>
<polygon fill="none" stroke="#404040" points="187.118,-67.9452 186.721,-60.745 193.214,-57.6094 193.611,-64.8096 187.118,-67.9452"/>
<text text-anchor="middle" x="191.5" y="-79" font-family="Helvetica,sans-Serif" font-size="10.00"> +uri</text>
</g>
<!-- Node4 -->
<g id="node4" class="node"><title>Node4</title>
<polygon fill="white" stroke="#bfbfbf" points="184.5,-111 184.5,-168 234.5,-168 234.5,-111 184.5,-111"/>
<text text-anchor="middle" x="209.5" y="-156" font-family="Helvetica,sans-Serif" font-size="10.00">Version</text>
<polyline fill="none" stroke="#bfbfbf" points="184.5,-149 234.5,-149 "/>
<text text-anchor="middle" x="209.5" y="-137" font-family="Helvetica,sans-Serif" font-size="10.00"> </text>
<polyline fill="none" stroke="#bfbfbf" points="184.5,-130 234.5,-130 "/>
<text text-anchor="middle" x="209.5" y="-118" font-family="Helvetica,sans-Serif" font-size="10.00"> </text>
</g>
<!-- Node4&#45;&gt;Node1 -->
<g id="edge3" class="edge"><title>Node4&#45;&gt;Node1</title>
<path fill="none" stroke="#404040" d="M209.5,-110.84C209.5,-98.342 209.5,-83.3424 209.5,-69.6757"/>
<polygon fill="none" stroke="#404040" points="209.5,-69.6094 205.5,-63.6094 209.5,-57.6094 213.5,-63.6093 209.5,-69.6094"/>
<text text-anchor="middle" x="229.5" y="-79" font-family="Helvetica,sans-Serif" font-size="10.00"> +version</text>
</g>
<!-- Node5 -->
<g id="node5" class="node"><title>Node5</title>
<polygon fill="white" stroke="#bfbfbf" points="253,-111 253,-168 302,-168 302,-111 253,-111"/>
<text text-anchor="middle" x="277.5" y="-156" font-family="Helvetica,sans-Serif" font-size="10.00">Method</text>
<polyline fill="none" stroke="#bfbfbf" points="253,-149 302,-149 "/>
<text text-anchor="middle" x="277.5" y="-137" font-family="Helvetica,sans-Serif" font-size="10.00"> </text>
<polyline fill="none" stroke="#bfbfbf" points="253,-130 302,-130 "/>
<text text-anchor="middle" x="277.5" y="-118" font-family="Helvetica,sans-Serif" font-size="10.00"> </text>
</g>
<!-- Node5&#45;&gt;Node1 -->
<g id="edge4" class="edge"><title>Node5&#45;&gt;Node1</title>
<path fill="none" stroke="#404040" d="M269.557,-110.928C265.64,-99.62 260.282,-86.701 253.5,-76 251.551,-72.9255 249.376,-69.8807 247.064,-66.9088"/>
<polygon fill="none" stroke="#404040" points="247.055,-66.8982 240.131,-64.8841 239.327,-57.7179 246.251,-59.732 247.055,-66.8982"/>
<text text-anchor="middle" x="280.5" y="-79" font-family="Helvetica,sans-Serif" font-size="10.00"> +method</text>
</g>
<!-- Node6 -->
<g id="node6" class="node"><title>Node6</title>
<polygon fill="white" stroke="#bfbfbf" points="320.5,-111 320.5,-168 418.5,-168 418.5,-111 320.5,-111"/>
<text text-anchor="middle" x="369.5" y="-156" font-family="Helvetica,sans-Serif" font-size="10.00">vector&lt; std::byte &gt;</text>
<polyline fill="none" stroke="#bfbfbf" points="320.5,-149 418.5,-149 "/>
<text text-anchor="middle" x="369.5" y="-137" font-family="Helvetica,sans-Serif" font-size="10.00"> </text>
<polyline fill="none" stroke="#bfbfbf" points="320.5,-130 418.5,-130 "/>
<text text-anchor="middle" x="369.5" y="-118" font-family="Helvetica,sans-Serif" font-size="10.00"> </text>
</g>
<!-- Node6&#45;&gt;Node1 -->
<g id="edge5" class="edge"><title>Node6&#45;&gt;Node1</title>
<path fill="none" stroke="#404040" d="M345.062,-110.882C333.787,-99.176 319.755,-85.9672 305.5,-76 295.945,-69.3191 285.269,-63.1374 274.606,-57.6147"/>
<polygon fill="none" stroke="#404040" points="274.286,-57.4555 267.132,-58.3604 263.545,-52.1047 270.699,-51.1997 274.286,-57.4555"/>
<text text-anchor="middle" x="335" y="-79" font-family="Helvetica,sans-Serif" font-size="10.00"> +body</text>
</g>
</g>
</svg>
