<?xml version="1.0" encoding="UTF-8" standalone="no"?>
<!DOCTYPE svg PUBLIC "-//W3C//DTD SVG 1.1//EN"
 "http://www.w3.org/Graphics/SVG/1.1/DTD/svg11.dtd">
<!-- Generated by graphviz version 2.38.0 (20140413.2041)
 -->
<!-- Title: zia::api::HttpRequest Pages: 1 -->
<svg width="343pt" height="287pt"
 viewBox="0.00 0.00 343.00 287.00" xmlns="http://www.w3.org/2000/svg" xmlns:xlink="http://www.w3.org/1999/xlink">
<g id="graph0" class="graph" transform="scale(1 1) rotate(0) translate(4 283)">
<title>zia::api::HttpRequest</title>
<polygon fill="white" stroke="none" points="-4,4 -4,-283 339,-283 339,4 -4,4"/>
<!-- Node2 -->
<g id="node1" class="node"><title>Node2</title>
<polygon fill="#bfbfbf" stroke="black" points="195.5,-0.5 195.5,-57.5 303.5,-57.5 303.5,-0.5 195.5,-0.5"/>
<text text-anchor="middle" x="249.5" y="-45.5" font-family="Helvetica,sans-Serif" font-size="10.00">zia::api::HttpRequest</text>
<polyline fill="none" stroke="black" points="195.5,-38.5 303.5,-38.5 "/>
<text text-anchor="middle" x="249.5" y="-26.5" font-family="Helvetica,sans-Serif" font-size="10.00"> </text>
<polyline fill="none" stroke="black" points="195.5,-19.5 303.5,-19.5 "/>
<text text-anchor="middle" x="249.5" y="-7.5" font-family="Helvetica,sans-Serif" font-size="10.00"> </text>
</g>
<!-- Node3 -->
<g id="node2" class="node"><title>Node3</title>
<g id="a_node2"><a xlink:href="structzia_1_1api_1_1_http_message.html" target="_top" xlink:title="{zia::api::HttpMessage\n||+ ~HttpMessage()\l}">
<polygon fill="white" stroke="black" points="94.5,-105.5 94.5,-162.5 206.5,-162.5 206.5,-105.5 94.5,-105.5"/>
<text text-anchor="middle" x="150.5" y="-150.5" font-family="Helvetica,sans-Serif" font-size="10.00">zia::api::HttpMessage</text>
<polyline fill="none" stroke="black" points="94.5,-143.5 206.5,-143.5 "/>
<text text-anchor="middle" x="150.5" y="-131.5" font-family="Helvetica,sans-Serif" font-size="10.00"> </text>
<polyline fill="none" stroke="black" points="94.5,-124.5 206.5,-124.5 "/>
<text text-anchor="start" x="102.5" y="-112.5" font-family="Helvetica,sans-Serif" font-size="10.00">+ ~HttpMessage()</text>
</a>
</g>
</g>
<!-- Node3&#45;&gt;Node2 -->
<g id="edge1" class="edge"><title>Node3&#45;&gt;Node2</title>
<path fill="none" stroke="midnightblue" d="M184.255,-97.8816C196.872,-84.7542 211.013,-70.0416 222.897,-57.6783"/>
<polygon fill="none" stroke="midnightblue" points="181.437,-95.7628 177.03,-105.398 186.483,-100.614 181.437,-95.7628"/>
</g>
<!-- Node4 -->
<g id="node3" class="node"><title>Node4</title>
<polygon fill="white" stroke="#bfbfbf" points="0,-210.5 0,-278.5 107,-278.5 107,-210.5 0,-210.5"/>
<text text-anchor="start" x="8" y="-266.5" font-family="Helvetica,sans-Serif" font-size="10.00">map&lt; std::string, std</text>
<text text-anchor="middle" x="53.5" y="-255.5" font-family="Helvetica,sans-Serif" font-size="10.00">::string &gt;</text>
<polyline fill="none" stroke="#bfbfbf" points="0,-248.5 107,-248.5 "/>
<text text-anchor="middle" x="53.5" y="-236.5" font-family="Helvetica,sans-Serif" font-size="10.00"> </text>
<polyline fill="none" stroke="#bfbfbf" points="0,-229.5 107,-229.5 "/>
<text text-anchor="middle" x="53.5" y="-217.5" font-family="Helvetica,sans-Serif" font-size="10.00"> </text>
</g>
<!-- Node4&#45;&gt;Node3 -->
<g id="edge2" class="edge"><title>Node4&#45;&gt;Node3</title>
<path fill="none" stroke="#404040" d="M78.0838,-210.346C85.6426,-200.655 94.1714,-190.199 102.5,-181 105.463,-177.727 108.612,-174.406 111.826,-171.123"/>
<polygon fill="none" stroke="#404040" points="111.897,-171.052 113.325,-163.983 120.399,-162.583 118.971,-169.651 111.897,-171.052"/>
<text text-anchor="middle" x="124.5" y="-184" font-family="Helvetica,sans-Serif" font-size="10.00"> +headers</text>
</g>
<!-- Node5 -->
<g id="node4" class="node"><title>Node5</title>
<polygon fill="white" stroke="#bfbfbf" points="125.5,-216 125.5,-273 175.5,-273 175.5,-216 125.5,-216"/>
<text text-anchor="middle" x="150.5" y="-261" font-family="Helvetica,sans-Serif" font-size="10.00">Version</text>
<polyline fill="none" stroke="#bfbfbf" points="125.5,-254 175.5,-254 "/>
<text text-anchor="middle" x="150.5" y="-242" font-family="Helvetica,sans-Serif" font-size="10.00"> </text>
<polyline fill="none" stroke="#bfbfbf" points="125.5,-235 175.5,-235 "/>
<text text-anchor="middle" x="150.5" y="-223" font-family="Helvetica,sans-Serif" font-size="10.00"> </text>
</g>
<!-- Node5&#45;&gt;Node3 -->
<g id="edge3" class="edge"><title>Node5&#45;&gt;Node3</title>
<path fill="none" stroke="#404040" d="M150.5,-215.84C150.5,-203.342 150.5,-188.342 150.5,-174.676"/>
<polygon fill="none" stroke="#404040" points="150.5,-174.609 146.5,-168.609 150.5,-162.609 154.5,-168.609 150.5,-174.609"/>
<text text-anchor="middle" x="170.5" y="-184" font-family="Helvetica,sans-Serif" font-size="10.00"> +version</text>
</g>
<!-- Node6 -->
<g id="node5" class="node"><title>Node6</title>
<polygon fill="white" stroke="#bfbfbf" points="193.5,-216 193.5,-273 291.5,-273 291.5,-216 193.5,-216"/>
<text text-anchor="middle" x="242.5" y="-261" font-family="Helvetica,sans-Serif" font-size="10.00">vector&lt; std::byte &gt;</text>
<polyline fill="none" stroke="#bfbfbf" points="193.5,-254 291.5,-254 "/>
<text text-anchor="middle" x="242.5" y="-242" font-family="Helvetica,sans-Serif" font-size="10.00"> </text>
<polyline fill="none" stroke="#bfbfbf" points="193.5,-235 291.5,-235 "/>
<text text-anchor="middle" x="242.5" y="-223" font-family="Helvetica,sans-Serif" font-size="10.00"> </text>
</g>
<!-- Node6&#45;&gt;Node3 -->
<g id="edge4" class="edge"><title>Node6&#45;&gt;Node3</title>
<path fill="none" stroke="#404040" d="M222.334,-215.92C213.981,-204.852 204.032,-192.111 194.5,-181 191.91,-177.98 189.178,-174.9 186.395,-171.837"/>
<polygon fill="none" stroke="#404040" points="186.147,-171.57 179.134,-169.891 177.987,-162.771 185,-164.45 186.147,-171.57"/>
<text text-anchor="middle" x="219" y="-184" font-family="Helvetica,sans-Serif" font-size="10.00"> +body</text>
</g>
<!-- Node7 -->
<g id="node6" class="node"><title>Node7</title>
<polygon fill="white" stroke="#bfbfbf" points="225,-105.5 225,-162.5 274,-162.5 274,-105.5 225,-105.5"/>
<text text-anchor="middle" x="249.5" y="-150.5" font-family="Helvetica,sans-Serif" font-size="10.00">Method</text>
<polyline fill="none" stroke="#bfbfbf" points="225,-143.5 274,-143.5 "/>
<text text-anchor="middle" x="249.5" y="-131.5" font-family="Helvetica,sans-Serif" font-size="10.00"> </text>
<polyline fill="none" stroke="#bfbfbf" points="225,-124.5 274,-124.5 "/>
<text text-anchor="middle" x="249.5" y="-112.5" font-family="Helvetica,sans-Serif" font-size="10.00"> </text>
</g>
<!-- Node7&#45;&gt;Node2 -->
<g id="edge5" class="edge"><title>Node7&#45;&gt;Node2</title>
<path fill="none" stroke="#404040" d="M249.5,-105.398C249.5,-94.5451 249.5,-81.8731 249.5,-70.0493"/>
<polygon fill="none" stroke="#404040" points="249.5,-69.6783 245.5,-63.6783 249.5,-57.6783 253.5,-63.6783 249.5,-69.6783"/>
<text text-anchor="middle" x="270.5" y="-79" font-family="Helvetica,sans-Serif" font-size="10.00"> +method</text>
</g>
<!-- Node8 -->
<g id="node7" class="node"><title>Node8</title>
<polygon fill="white" stroke="#bfbfbf" points="294,-105.5 294,-162.5 335,-162.5 335,-105.5 294,-105.5"/>
<text text-anchor="middle" x="314.5" y="-150.5" font-family="Helvetica,sans-Serif" font-size="10.00">string</text>
<polyline fill="none" stroke="#bfbfbf" points="294,-143.5 335,-143.5 "/>
<text text-anchor="middle" x="314.5" y="-131.5" font-family="Helvetica,sans-Serif" font-size="10.00"> </text>
<polyline fill="none" stroke="#bfbfbf" points="294,-124.5 335,-124.5 "/>
<text text-anchor="middle" x="314.5" y="-112.5" font-family="Helvetica,sans-Serif" font-size="10.00"> </text>
</g>
<!-- Node8&#45;&gt;Node2 -->
<g id="edge6" class="edge"><title>Node8&#45;&gt;Node2</title>
<path fill="none" stroke="#404040" d="M306.225,-105.309C302.724,-95.6504 298.135,-84.987 292.5,-76 290.559,-72.9045 288.392,-69.8331 286.091,-66.8325"/>
<polygon fill="none" stroke="#404040" points="286.054,-66.7871 279.146,-64.7183 278.398,-57.546 285.306,-59.6148 286.054,-66.7871"/>
<text text-anchor="middle" x="308.5" y="-79" font-family="Helvetica,sans-Serif" font-size="10.00"> +uri</text>
</g>
</g>
</svg>
