<?xml version="1.0" encoding="UTF-8" standalone="no"?>
<!DOCTYPE svg PUBLIC "-//W3C//DTD SVG 1.1//EN"
 "http://www.w3.org/Graphics/SVG/1.1/DTD/svg11.dtd">
<!-- Generated by graphviz version 2.38.0 (20140413.2041)
 -->
<!-- Title: zia::api::HttpResponse Pages: 1 -->
<svg width="124pt" height="182pt"
 viewBox="0.00 0.00 124.00 182.00" xmlns="http://www.w3.org/2000/svg" xmlns:xlink="http://www.w3.org/1999/xlink">
<g id="graph0" class="graph" transform="scale(1 1) rotate(0) translate(4 178)">
<title>zia::api::HttpResponse</title>
<polygon fill="white" stroke="none" points="-4,4 -4,-178 120,-178 120,4 -4,4"/>
<!-- Node0 -->
<g id="node1" class="node"><title>Node0</title>
<polygon fill="#bfbfbf" stroke="black" points="0,-0.5 0,-57.5 116,-57.5 116,-0.5 0,-0.5"/>
<text text-anchor="middle" x="58" y="-45.5" font-family="Helvetica,sans-Serif" font-size="10.00">zia::api::HttpResponse</text>
<polyline fill="none" stroke="black" points="0,-38.5 116,-38.5 "/>
<text text-anchor="start" x="8" y="-26.5" font-family="Helvetica,sans-Serif" font-size="10.00">+ status</text>
<polyline fill="none" stroke="black" points="0,-19.5 116,-19.5 "/>
<text text-anchor="middle" x="58" y="-7.5" font-family="Helvetica,sans-Serif" font-size="10.00"> </text>
</g>
<!-- Node1 -->
<g id="node2" class="node"><title>Node1</title>
<g id="a_node2"><a xlink:href="structzia_1_1api_1_1_http_message.html" target="_top" xlink:title="{zia::api::HttpMessage\n|+ version\l+ headers\l+ body\l|+ ~HttpMessage()\l}">
<polygon fill="white" stroke="black" points="2,-94.5 2,-173.5 114,-173.5 114,-94.5 2,-94.5"/>
<text text-anchor="middle" x="58" y="-161.5" font-family="Helvetica,sans-Serif" font-size="10.00">zia::api::HttpMessage</text>
<polyline fill="none" stroke="black" points="2,-154.5 114,-154.5 "/>
<text text-anchor="start" x="10" y="-142.5" font-family="Helvetica,sans-Serif" font-size="10.00">+ version</text>
<text text-anchor="start" x="10" y="-131.5" font-family="Helvetica,sans-Serif" font-size="10.00">+ headers</text>
<text text-anchor="start" x="10" y="-120.5" font-family="Helvetica,sans-Serif" font-size="10.00">+ body</text>
<polyline fill="none" stroke="black" points="2,-113.5 114,-113.5 "/>
<text text-anchor="start" x="10" y="-101.5" font-family="Helvetica,sans-Serif" font-size="10.00">+ ~HttpMessage()</text>
</a>
</g>
</g>
<!-- Node1&#45;&gt;Node0 -->
<g id="edge1" class="edge"><title>Node1&#45;&gt;Node0</title>
<path fill="none" stroke="midnightblue" d="M58,-84.1628C58,-75.0404 58,-65.8063 58,-57.6095"/>
<polygon fill="none" stroke="midnightblue" points="54.5001,-84.3535 58,-94.3536 61.5001,-84.3536 54.5001,-84.3535"/>
</g>
</g>
</svg>
