<?xml version="1.0" encoding="UTF-8" standalone="no"?>
<!DOCTYPE svg PUBLIC "-//W3C//DTD SVG 1.1//EN"
 "http://www.w3.org/Graphics/SVG/1.1/DTD/svg11.dtd">
<!-- Generated by graphviz version 2.38.0 (20140413.2041)
 -->
<!-- Title: zia::api::NetInfo Pages: 1 -->
<svg width="354pt" height="276pt"
 viewBox="0.00 0.00 353.50 276.00" xmlns="http://www.w3.org/2000/svg" xmlns:xlink="http://www.w3.org/1999/xlink">
<g id="graph0" class="graph" transform="scale(1 1) rotate(0) translate(4 272)">
<title>zia::api::NetInfo</title>
<polygon fill="white" stroke="none" points="-4,4 -4,-272 349.5,-272 349.5,4 -4,4"/>
<!-- Node1 -->
<g id="node1" class="node"><title>Node1</title>
<polygon fill="#bfbfbf" stroke="black" points="85,-0.5 85,-57.5 169,-57.5 169,-0.5 85,-0.5"/>
<text text-anchor="middle" x="127" y="-45.5" font-family="Helvetica,sans-Serif" font-size="10.00">zia::api::NetInfo</text>
<polyline fill="none" stroke="black" points="85,-38.5 169,-38.5 "/>
<text text-anchor="middle" x="127" y="-26.5" font-family="Helvetica,sans-Serif" font-size="10.00"> </text>
<polyline fill="none" stroke="black" points="85,-19.5 169,-19.5 "/>
<text text-anchor="middle" x="127" y="-7.5" font-family="Helvetica,sans-Serif" font-size="10.00"> </text>
</g>
<!-- Node2 -->
<g id="node2" class="node"><title>Node2</title>
<polygon fill="white" stroke="#bfbfbf" points="0,-105.5 0,-162.5 62,-162.5 62,-105.5 0,-105.5"/>
<text text-anchor="middle" x="31" y="-150.5" font-family="Helvetica,sans-Serif" font-size="10.00">time_point</text>
<polyline fill="none" stroke="#bfbfbf" points="0,-143.5 62,-143.5 "/>
<text text-anchor="middle" x="31" y="-131.5" font-family="Helvetica,sans-Serif" font-size="10.00"> </text>
<polyline fill="none" stroke="#bfbfbf" points="0,-124.5 62,-124.5 "/>
<text text-anchor="middle" x="31" y="-112.5" font-family="Helvetica,sans-Serif" font-size="10.00"> </text>
</g>
<!-- Node2&#45;&gt;Node1 -->
<g id="edge1" class="edge"><title>Node2&#45;&gt;Node1</title>
<path fill="none" stroke="#404040" d="M21.1728,-105.482C19.3237,-95.5175 19.4386,-84.6089 25,-76 35.9552,-59.0416 54.8266,-48.2711 73.381,-41.4592"/>
<polygon fill="none" stroke="#404040" points="73.4162,-41.4477 77.8716,-35.7776 84.8191,-37.7094 80.3638,-43.3795 73.4162,-41.4477"/>
<text text-anchor="middle" x="39" y="-79" font-family="Helvetica,sans-Serif" font-size="10.00"> +time</text>
</g>
<!-- Node2&#45;&gt;Node1 -->
<g id="edge3" class="edge"><title>Node2&#45;&gt;Node1</title>
<path fill="none" stroke="#404040" d="M56.7262,-105.398C67.8099,-93.5061 80.9294,-79.4299 92.814,-66.6787"/>
<polygon fill="none" stroke="#404040" points="93.021,-66.4567 94.1857,-59.3402 101.203,-57.6783 100.038,-64.7947 93.021,-66.4567"/>
<text text-anchor="middle" x="96.5" y="-79" font-family="Helvetica,sans-Serif" font-size="10.00"> +start</text>
</g>
<!-- Node3 -->
<g id="node3" class="node"><title>Node3</title>
<polygon fill="white" stroke="#bfbfbf" points="94.5,-105.5 94.5,-162.5 145.5,-162.5 145.5,-105.5 94.5,-105.5"/>
<text text-anchor="middle" x="120" y="-150.5" font-family="Helvetica,sans-Serif" font-size="10.00">uint16_t</text>
<polyline fill="none" stroke="#bfbfbf" points="94.5,-143.5 145.5,-143.5 "/>
<text text-anchor="middle" x="120" y="-131.5" font-family="Helvetica,sans-Serif" font-size="10.00"> </text>
<polyline fill="none" stroke="#bfbfbf" points="94.5,-124.5 145.5,-124.5 "/>
<text text-anchor="middle" x="120" y="-112.5" font-family="Helvetica,sans-Serif" font-size="10.00"> </text>
</g>
<!-- Node3&#45;&gt;Node1 -->
<g id="edge2" class="edge"><title>Node3&#45;&gt;Node1</title>
<path fill="none" stroke="#404040" d="M121.876,-105.398C122.621,-94.4297 123.493,-81.6033 124.304,-69.6722"/>
<polygon fill="none" stroke="#404040" points="124.305,-69.6507 120.721,-63.3932 125.119,-57.6783 128.703,-63.9357 124.305,-69.6507"/>
<text text-anchor="middle" x="137" y="-79" font-family="Helvetica,sans-Serif" font-size="10.00"> +port</text>
</g>
<!-- Node4 -->
<g id="node4" class="node"><title>Node4</title>
<polygon fill="white" stroke="#bfbfbf" points="164,-105.5 164,-162.5 236,-162.5 236,-105.5 164,-105.5"/>
<text text-anchor="middle" x="200" y="-150.5" font-family="Helvetica,sans-Serif" font-size="10.00">ImplSocket *</text>
<polyline fill="none" stroke="#bfbfbf" points="164,-143.5 236,-143.5 "/>
<text text-anchor="middle" x="200" y="-131.5" font-family="Helvetica,sans-Serif" font-size="10.00"> </text>
<polyline fill="none" stroke="#bfbfbf" points="164,-124.5 236,-124.5 "/>
<text text-anchor="middle" x="200" y="-112.5" font-family="Helvetica,sans-Serif" font-size="10.00"> </text>
</g>
<!-- Node4&#45;&gt;Node1 -->
<g id="edge4" class="edge"><title>Node4&#45;&gt;Node1</title>
<path fill="none" stroke="#404040" d="M180.437,-105.398C172.255,-93.8524 162.613,-80.248 153.788,-67.7962"/>
<polygon fill="none" stroke="#404040" points="153.556,-67.4687 146.823,-64.8865 146.617,-57.6783 153.35,-60.2606 153.556,-67.4687"/>
<text text-anchor="middle" x="181.5" y="-79" font-family="Helvetica,sans-Serif" font-size="10.00"> +sock</text>
</g>
<!-- Node5 -->
<g id="node5" class="node"><title>Node5</title>
<g id="a_node5"><a xlink:href="structzia_1_1api_1_1_net_ip.html" target="_top" xlink:title="{zia::api::NetIp\n||}">
<polygon fill="white" stroke="black" points="254.5,-105.5 254.5,-162.5 331.5,-162.5 331.5,-105.5 254.5,-105.5"/>
<text text-anchor="middle" x="293" y="-150.5" font-family="Helvetica,sans-Serif" font-size="10.00">zia::api::NetIp</text>
<polyline fill="none" stroke="black" points="254.5,-143.5 331.5,-143.5 "/>
<text text-anchor="middle" x="293" y="-131.5" font-family="Helvetica,sans-Serif" font-size="10.00"> </text>
<polyline fill="none" stroke="black" points="254.5,-124.5 331.5,-124.5 "/>
<text text-anchor="middle" x="293" y="-112.5" font-family="Helvetica,sans-Serif" font-size="10.00"> </text>
</a>
</g>
</g>
<!-- Node5&#45;&gt;Node1 -->
<g id="edge5" class="edge"><title>Node5&#45;&gt;Node1</title>
<path fill="none" stroke="#404040" d="M254.499,-109.111C232.223,-95.2889 203.875,-77.6997 179.569,-62.6181"/>
<polygon fill="none" stroke="#404040" points="179.273,-62.4346 172.066,-62.6701 169.077,-56.1077 176.284,-55.8723 179.273,-62.4346"/>
<text text-anchor="middle" x="223.5" y="-79" font-family="Helvetica,sans-Serif" font-size="10.00"> +ip</text>
</g>
<!-- Node6 -->
<g id="node6" class="node"><title>Node6</title>
<polygon fill="white" stroke="#bfbfbf" points="235.5,-210.5 235.5,-267.5 286.5,-267.5 286.5,-210.5 235.5,-210.5"/>
<text text-anchor="middle" x="261" y="-255.5" font-family="Helvetica,sans-Serif" font-size="10.00">uint32_t</text>
<polyline fill="none" stroke="#bfbfbf" points="235.5,-248.5 286.5,-248.5 "/>
<text text-anchor="middle" x="261" y="-236.5" font-family="Helvetica,sans-Serif" font-size="10.00"> </text>
<polyline fill="none" stroke="#bfbfbf" points="235.5,-229.5 286.5,-229.5 "/>
<text text-anchor="middle" x="261" y="-217.5" font-family="Helvetica,sans-Serif" font-size="10.00"> </text>
</g>
<!-- Node6&#45;&gt;Node5 -->
<g id="edge6" class="edge"><title>Node6&#45;&gt;Node5</title>
<path fill="none" stroke="#404040" d="M269.575,-210.398C273.019,-199.314 277.052,-186.333 280.792,-174.296"/>
<polygon fill="none" stroke="#404040" points="280.841,-174.138 278.801,-167.221 284.401,-162.678 286.441,-169.595 280.841,-174.138"/>
<text text-anchor="middle" x="284" y="-184" font-family="Helvetica,sans-Serif" font-size="10.00"> +i</text>
</g>
<!-- Node7 -->
<g id="node7" class="node"><title>Node7</title>
<polygon fill="white" stroke="#bfbfbf" points="304.5,-210.5 304.5,-267.5 345.5,-267.5 345.5,-210.5 304.5,-210.5"/>
<text text-anchor="middle" x="325" y="-255.5" font-family="Helvetica,sans-Serif" font-size="10.00">string</text>
<polyline fill="none" stroke="#bfbfbf" points="304.5,-248.5 345.5,-248.5 "/>
<text text-anchor="middle" x="325" y="-236.5" font-family="Helvetica,sans-Serif" font-size="10.00"> </text>
<polyline fill="none" stroke="#bfbfbf" points="304.5,-229.5 345.5,-229.5 "/>
<text text-anchor="middle" x="325" y="-217.5" font-family="Helvetica,sans-Serif" font-size="10.00"> </text>
</g>
<!-- Node7&#45;&gt;Node5 -->
<g id="edge7" class="edge"><title>Node7&#45;&gt;Node5</title>
<path fill="none" stroke="#404040" d="M316.425,-210.398C312.981,-199.314 308.948,-186.333 305.208,-174.296"/>
<polygon fill="none" stroke="#404040" points="305.159,-174.138 299.559,-169.595 301.599,-162.678 307.199,-167.221 305.159,-174.138"/>
<text text-anchor="middle" x="319.5" y="-184" font-family="Helvetica,sans-Serif" font-size="10.00"> +str</text>
</g>
</g>
</svg>
