<?xml version="1.0" encoding="UTF-8" standalone="no"?>
<!DOCTYPE svg PUBLIC "-//W3C//DTD SVG 1.1//EN"
 "http://www.w3.org/Graphics/SVG/1.1/DTD/svg11.dtd">
<!-- Generated by graphviz version 2.38.0 (20140413.2041)
 -->
<!-- Title: zia::api::HttpMessage Pages: 1 -->
<svg width="250pt" height="193pt"
 viewBox="0.00 0.00 250.00 193.00" xmlns="http://www.w3.org/2000/svg" xmlns:xlink="http://www.w3.org/1999/xlink">
<g id="graph0" class="graph" transform="scale(1 1) rotate(0) translate(4 189)">
<title>zia::api::HttpMessage</title>
<polygon fill="white" stroke="none" points="-4,4 -4,-189 246,-189 246,4 -4,4"/>
<!-- Node0 -->
<g id="node1" class="node"><title>Node0</title>
<polygon fill="#bfbfbf" stroke="black" points="63,-105.5 63,-184.5 175,-184.5 175,-105.5 63,-105.5"/>
<text text-anchor="middle" x="119" y="-172.5" font-family="Helvetica,sans-Serif" font-size="10.00">zia::api::HttpMessage</text>
<polyline fill="none" stroke="black" points="63,-165.5 175,-165.5 "/>
<text text-anchor="start" x="71" y="-153.5" font-family="Helvetica,sans-Serif" font-size="10.00">+ version</text>
<text text-anchor="start" x="71" y="-142.5" font-family="Helvetica,sans-Serif" font-size="10.00">+ headers</text>
<text text-anchor="start" x="71" y="-131.5" font-family="Helvetica,sans-Serif" font-size="10.00">+ body</text>
<polyline fill="none" stroke="black" points="63,-124.5 175,-124.5 "/>
<text text-anchor="start" x="71" y="-112.5" font-family="Helvetica,sans-Serif" font-size="10.00">+ ~HttpMessage()</text>
</g>
<!-- Node1 -->
<g id="node2" class="node"><title>Node1</title>
<g id="a_node2"><a xlink:href="structzia_1_1api_1_1_http_request.html" target="_top" xlink:title="{zia::api::HttpRequest\n|+ method\l+ uri\l|}">
<polygon fill="white" stroke="black" points="0,-0.5 0,-68.5 108,-68.5 108,-0.5 0,-0.5"/>
<text text-anchor="middle" x="54" y="-56.5" font-family="Helvetica,sans-Serif" font-size="10.00">zia::api::HttpRequest</text>
<polyline fill="none" stroke="black" points="0,-49.5 108,-49.5 "/>
<text text-anchor="start" x="8" y="-37.5" font-family="Helvetica,sans-Serif" font-size="10.00">+ method</text>
<text text-anchor="start" x="8" y="-26.5" font-family="Helvetica,sans-Serif" font-size="10.00">+ uri</text>
<polyline fill="none" stroke="black" points="0,-19.5 108,-19.5 "/>
<text text-anchor="middle" x="54" y="-7.5" font-family="Helvetica,sans-Serif" font-size="10.00"> </text>
</a>
</g>
</g>
<!-- Node0&#45;&gt;Node1 -->
<g id="edge1" class="edge"><title>Node0&#45;&gt;Node1</title>
<path fill="none" stroke="midnightblue" d="M90.7292,-96.8096C85.0217,-87.2824 79.1371,-77.4597 73.7959,-68.5439"/>
<polygon fill="none" stroke="midnightblue" points="87.7588,-98.6617 95.9004,-105.441 93.7637,-95.0643 87.7588,-98.6617"/>
</g>
<!-- Node2 -->
<g id="node3" class="node"><title>Node2</title>
<g id="a_node3"><a xlink:href="structzia_1_1api_1_1_http_response.html" target="_top" xlink:title="{zia::api::HttpResponse\n|+ status\l|}">
<polygon fill="white" stroke="black" points="126,-6 126,-63 242,-63 242,-6 126,-6"/>
<text text-anchor="middle" x="184" y="-51" font-family="Helvetica,sans-Serif" font-size="10.00">zia::api::HttpResponse</text>
<polyline fill="none" stroke="black" points="126,-44 242,-44 "/>
<text text-anchor="start" x="134" y="-32" font-family="Helvetica,sans-Serif" font-size="10.00">+ status</text>
<polyline fill="none" stroke="black" points="126,-25 242,-25 "/>
<text text-anchor="middle" x="184" y="-13" font-family="Helvetica,sans-Serif" font-size="10.00"> </text>
</a>
</g>
</g>
<!-- Node0&#45;&gt;Node2 -->
<g id="edge2" class="edge"><title>Node0&#45;&gt;Node2</title>
<path fill="none" stroke="midnightblue" d="M147.306,-96.7506C154.208,-85.2305 161.366,-73.2821 167.507,-63.0304"/>
<polygon fill="none" stroke="midnightblue" points="144.236,-95.0643 142.1,-105.441 150.241,-98.6617 144.236,-95.0643"/>
</g>
</g>
</svg>
