<?xml version="1.0" encoding="UTF-8" standalone="no"?>
<!DOCTYPE svg PUBLIC "-//W3C//DTD SVG 1.1//EN"
 "http://www.w3.org/Graphics/SVG/1.1/DTD/svg11.dtd">
<!-- Generated by graphviz version 2.38.0 (20140413.2041)
 -->
<!-- Title: zia::api::HttpMessage Pages: 1 -->
<svg width="300pt" height="182pt"
 viewBox="0.00 0.00 299.50 182.00" xmlns="http://www.w3.org/2000/svg" xmlns:xlink="http://www.w3.org/1999/xlink">
<g id="graph0" class="graph" transform="scale(1 1) rotate(0) translate(4 178)">
<title>zia::api::HttpMessage</title>
<polygon fill="white" stroke="none" points="-4,4 -4,-178 295.5,-178 295.5,4 -4,4"/>
<!-- Node3 -->
<g id="node1" class="node"><title>Node3</title>
<polygon fill="#bfbfbf" stroke="black" points="94.5,-0.5 94.5,-57.5 206.5,-57.5 206.5,-0.5 94.5,-0.5"/>
<text text-anchor="middle" x="150.5" y="-45.5" font-family="Helvetica,sans-Serif" font-size="10.00">zia::api::HttpMessage</text>
<polyline fill="none" stroke="black" points="94.5,-38.5 206.5,-38.5 "/>
<text text-anchor="middle" x="150.5" y="-26.5" font-family="Helvetica,sans-Serif" font-size="10.00"> </text>
<polyline fill="none" stroke="black" points="94.5,-19.5 206.5,-19.5 "/>
<text text-anchor="start" x="102.5" y="-7.5" font-family="Helvetica,sans-Serif" font-size="10.00">+ ~HttpMessage()</text>
</g>
<!-- Node4 -->
<g id="node2" class="node"><title>Node4</title>
<polygon fill="white" stroke="#bfbfbf" points="0,-105.5 0,-173.5 107,-173.5 107,-105.5 0,-105.5"/>
<text text-anchor="start" x="8" y="-161.5" font-family="Helvetica,sans-Serif" font-size="10.00">map&lt; std::string, std</text>
<text text-anchor="middle" x="53.5" y="-150.5" font-family="Helvetica,sans-Serif" font-size="10.00">::string &gt;</text>
<polyline fill="none" stroke="#bfbfbf" points="0,-143.5 107,-143.5 "/>
<text text-anchor="middle" x="53.5" y="-131.5" font-family="Helvetica,sans-Serif" font-size="10.00"> </text>
<polyline fill="none" stroke="#bfbfbf" points="0,-124.5 107,-124.5 "/>
<text text-anchor="middle" x="53.5" y="-112.5" font-family="Helvetica,sans-Serif" font-size="10.00"> </text>
</g>
<!-- Node4&#45;&gt;Node3 -->
<g id="edge1" class="edge"><title>Node4&#45;&gt;Node3</title>
<path fill="none" stroke="#404040" d="M78.0838,-105.346C85.6426,-95.6545 94.1714,-85.1989 102.5,-76 105.463,-72.7272 108.612,-69.4055 111.826,-66.1226"/>
<polygon fill="none" stroke="#404040" points="111.897,-66.0517 113.325,-58.9834 120.399,-57.5832 118.971,-64.6515 111.897,-66.0517"/>
<text text-anchor="middle" x="124.5" y="-79" font-family="Helvetica,sans-Serif" font-size="10.00"> +headers</text>
</g>
<!-- Node5 -->
<g id="node3" class="node"><title>Node5</title>
<polygon fill="white" stroke="#bfbfbf" points="125.5,-111 125.5,-168 175.5,-168 175.5,-111 125.5,-111"/>
<text text-anchor="middle" x="150.5" y="-156" font-family="Helvetica,sans-Serif" font-size="10.00">Version</text>
<polyline fill="none" stroke="#bfbfbf" points="125.5,-149 175.5,-149 "/>
<text text-anchor="middle" x="150.5" y="-137" font-family="Helvetica,sans-Serif" font-size="10.00"> </text>
<polyline fill="none" stroke="#bfbfbf" points="125.5,-130 175.5,-130 "/>
<text text-anchor="middle" x="150.5" y="-118" font-family="Helvetica,sans-Serif" font-size="10.00"> </text>
</g>
<!-- Node5&#45;&gt;Node3 -->
<g id="edge2" class="edge"><title>Node5&#45;&gt;Node3</title>
<path fill="none" stroke="#404040" d="M150.5,-110.84C150.5,-98.342 150.5,-83.3424 150.5,-69.6757"/>
<polygon fill="none" stroke="#404040" points="150.5,-69.6094 146.5,-63.6094 150.5,-57.6094 154.5,-63.6093 150.5,-69.6094"/>
<text text-anchor="middle" x="170.5" y="-79" font-family="Helvetica,sans-Serif" font-size="10.00"> +version</text>
</g>
<!-- Node6 -->
<g id="node4" class="node"><title>Node6</title>
<polygon fill="white" stroke="#bfbfbf" points="193.5,-111 193.5,-168 291.5,-168 291.5,-111 193.5,-111"/>
<text text-anchor="middle" x="242.5" y="-156" font-family="Helvetica,sans-Serif" font-size="10.00">vector&lt; std::byte &gt;</text>
<polyline fill="none" stroke="#bfbfbf" points="193.5,-149 291.5,-149 "/>
<text text-anchor="middle" x="242.5" y="-137" font-family="Helvetica,sans-Serif" font-size="10.00"> </text>
<polyline fill="none" stroke="#bfbfbf" points="193.5,-130 291.5,-130 "/>
<text text-anchor="middle" x="242.5" y="-118" font-family="Helvetica,sans-Serif" font-size="10.00"> </text>
</g>
<!-- Node6&#45;&gt;Node3 -->
<g id="edge3" class="edge"><title>Node6&#45;&gt;Node3</title>
<path fill="none" stroke="#404040" d="M222.334,-110.92C213.981,-99.8523 204.032,-87.1108 194.5,-76 191.91,-72.9804 189.178,-69.9004 186.395,-66.8368"/>
<polygon fill="none" stroke="#404040" points="186.147,-66.5696 179.134,-64.8905 177.987,-57.7712 185,-59.4503 186.147,-66.5696"/>
<text text-anchor="middle" x="219" y="-79" font-family="Helvetica,sans-Serif" font-size="10.00"> +body</text>
</g>
</g>
</svg>
