<?xml version="1.0" encoding="UTF-8" standalone="no"?>
<!DOCTYPE svg PUBLIC "-//W3C//DTD SVG 1.1//EN"
 "http://www.w3.org/Graphics/SVG/1.1/DTD/svg11.dtd">
<!-- Generated by graphviz version 2.38.0 (20140413.2041)
 -->
<!-- Title: zia::api::HttpDuplex Pages: 1 -->
<svg width="907pt" height="392pt"
 viewBox="0.00 0.00 906.98 392.00" xmlns="http://www.w3.org/2000/svg" xmlns:xlink="http://www.w3.org/1999/xlink">
<g id="graph0" class="graph" transform="scale(1 1) rotate(0) translate(4 388)">
<title>zia::api::HttpDuplex</title>
<polygon fill="white" stroke="none" points="-4,4 -4,-388 902.981,-388 902.981,4 -4,4"/>
<!-- Node1 -->
<g id="node1" class="node"><title>Node1</title>
<polygon fill="#bfbfbf" stroke="black" points="422.481,-0.5 422.481,-57.5 524.481,-57.5 524.481,-0.5 422.481,-0.5"/>
<text text-anchor="middle" x="473.481" y="-45.5" font-family="Helvetica,sans-Serif" font-size="10.00">zia::api::HttpDuplex</text>
<polyline fill="none" stroke="black" points="422.481,-38.5 524.481,-38.5 "/>
<text text-anchor="middle" x="473.481" y="-26.5" font-family="Helvetica,sans-Serif" font-size="10.00"> </text>
<polyline fill="none" stroke="black" points="422.481,-19.5 524.481,-19.5 "/>
<text text-anchor="middle" x="473.481" y="-7.5" font-family="Helvetica,sans-Serif" font-size="10.00"> </text>
</g>
<!-- Node2 -->
<g id="node2" class="node"><title>Node2</title>
<g id="a_node2"><a xlink:href="structzia_1_1api_1_1_http_request.html" target="_top" xlink:title="{zia::api::HttpRequest\n||}">
<polygon fill="white" stroke="black" points="97.4807,-105.5 97.4807,-162.5 205.481,-162.5 205.481,-105.5 97.4807,-105.5"/>
<text text-anchor="middle" x="151.481" y="-150.5" font-family="Helvetica,sans-Serif" font-size="10.00">zia::api::HttpRequest</text>
<polyline fill="none" stroke="black" points="97.4807,-143.5 205.481,-143.5 "/>
<text text-anchor="middle" x="151.481" y="-131.5" font-family="Helvetica,sans-Serif" font-size="10.00"> </text>
<polyline fill="none" stroke="black" points="97.4807,-124.5 205.481,-124.5 "/>
<text text-anchor="middle" x="151.481" y="-112.5" font-family="Helvetica,sans-Serif" font-size="10.00"> </text>
</a>
</g>
</g>
<!-- Node2&#45;&gt;Node1 -->
<g id="edge1" class="edge"><title>Node2&#45;&gt;Node1</title>
<path fill="none" stroke="#404040" d="M205.739,-115.644C262.45,-97.5036 351.319,-69.0766 410.942,-50.0046"/>
<polygon fill="none" stroke="#404040" points="411.029,-49.9769 415.525,-44.339 422.458,-46.3208 417.962,-51.9586 411.029,-49.9769"/>
<text text-anchor="middle" x="333.981" y="-79" font-family="Helvetica,sans-Serif" font-size="10.00"> +req</text>
</g>
<!-- Node3 -->
<g id="node3" class="node"><title>Node3</title>
<polygon fill="white" stroke="#bfbfbf" points="119.981,-210.5 119.981,-278.5 226.981,-278.5 226.981,-210.5 119.981,-210.5"/>
<text text-anchor="start" x="127.981" y="-266.5" font-family="Helvetica,sans-Serif" font-size="10.00">map&lt; std::string, std</text>
<text text-anchor="middle" x="173.481" y="-255.5" font-family="Helvetica,sans-Serif" font-size="10.00">::string &gt;</text>
<polyline fill="none" stroke="#bfbfbf" points="119.981,-248.5 226.981,-248.5 "/>
<text text-anchor="middle" x="173.481" y="-236.5" font-family="Helvetica,sans-Serif" font-size="10.00"> </text>
<polyline fill="none" stroke="#bfbfbf" points="119.981,-229.5 226.981,-229.5 "/>
<text text-anchor="middle" x="173.481" y="-217.5" font-family="Helvetica,sans-Serif" font-size="10.00"> </text>
</g>
<!-- Node3&#45;&gt;Node2 -->
<g id="edge2" class="edge"><title>Node3&#45;&gt;Node2</title>
<path fill="none" stroke="#404040" d="M130.299,-210.318C125.514,-204.743 121.343,-198.601 118.481,-192 115.875,-185.991 116.088,-179.817 117.988,-173.853"/>
<polygon fill="none" stroke="#404040" points="118.15,-173.52 117.194,-166.373 123.424,-162.741 124.38,-169.889 118.15,-173.52"/>
<text text-anchor="middle" x="140.481" y="-184" font-family="Helvetica,sans-Serif" font-size="10.00"> +headers</text>
</g>
<!-- Node14 -->
<g id="node14" class="node"><title>Node14</title>
<g id="a_node14"><a xlink:href="structzia_1_1api_1_1_http_response.html" target="_top" xlink:title="{zia::api::HttpResponse\n||}">
<polygon fill="white" stroke="black" points="356.481,-105.5 356.481,-162.5 472.481,-162.5 472.481,-105.5 356.481,-105.5"/>
<text text-anchor="middle" x="414.481" y="-150.5" font-family="Helvetica,sans-Serif" font-size="10.00">zia::api::HttpResponse</text>
<polyline fill="none" stroke="black" points="356.481,-143.5 472.481,-143.5 "/>
<text text-anchor="middle" x="414.481" y="-131.5" font-family="Helvetica,sans-Serif" font-size="10.00"> </text>
<polyline fill="none" stroke="black" points="356.481,-124.5 472.481,-124.5 "/>
<text text-anchor="middle" x="414.481" y="-112.5" font-family="Helvetica,sans-Serif" font-size="10.00"> </text>
</a>
</g>
</g>
<!-- Node3&#45;&gt;Node14 -->
<g id="edge16" class="edge"><title>Node3&#45;&gt;Node14</title>
<path fill="none" stroke="#404040" d="M213.736,-210.324C227.877,-199.853 244.289,-188.954 260.481,-181 286.878,-168.032 317.645,-157.945 344.708,-150.565"/>
<polygon fill="none" stroke="#404040" points="344.85,-150.527 349.63,-145.129 356.452,-147.465 351.672,-152.864 344.85,-150.527"/>
<text text-anchor="middle" x="282.481" y="-184" font-family="Helvetica,sans-Serif" font-size="10.00"> +headers</text>
</g>
<!-- Node4 -->
<g id="node4" class="node"><title>Node4</title>
<polygon fill="white" stroke="#bfbfbf" points="456.981,-326.5 456.981,-383.5 497.981,-383.5 497.981,-326.5 456.981,-326.5"/>
<text text-anchor="middle" x="477.481" y="-371.5" font-family="Helvetica,sans-Serif" font-size="10.00">string</text>
<polyline fill="none" stroke="#bfbfbf" points="456.981,-364.5 497.981,-364.5 "/>
<text text-anchor="middle" x="477.481" y="-352.5" font-family="Helvetica,sans-Serif" font-size="10.00"> </text>
<polyline fill="none" stroke="#bfbfbf" points="456.981,-345.5 497.981,-345.5 "/>
<text text-anchor="middle" x="477.481" y="-333.5" font-family="Helvetica,sans-Serif" font-size="10.00"> </text>
</g>
<!-- Node4&#45;&gt;Node2 -->
<g id="edge3" class="edge"><title>Node4&#45;&gt;Node2</title>
<path fill="none" stroke="#404040" d="M456.832,-354.026C374.576,-353.654 71.8659,-347.58 13.4807,-279 -6.39873,-255.649 -1.8263,-236.573 13.4807,-210 29.0916,-182.899 58.4156,-165.027 86.0312,-153.555"/>
<polygon fill="none" stroke="#404040" points="86.1237,-153.519 90.2662,-147.616 97.3079,-149.17 93.1655,-155.072 86.1237,-153.519"/>
<text text-anchor="middle" x="23.4807" y="-242" font-family="Helvetica,sans-Serif" font-size="10.00"> +uri</text>
</g>
<!-- Node12 -->
<g id="node12" class="node"><title>Node12</title>
<g id="a_node12"><a xlink:href="structzia_1_1api_1_1_net_ip.html" target="_top" xlink:title="{zia::api::NetIp\n||}">
<polygon fill="white" stroke="black" points="821.981,-216 821.981,-273 898.981,-273 898.981,-216 821.981,-216"/>
<text text-anchor="middle" x="860.481" y="-261" font-family="Helvetica,sans-Serif" font-size="10.00">zia::api::NetIp</text>
<polyline fill="none" stroke="black" points="821.981,-254 898.981,-254 "/>
<text text-anchor="middle" x="860.481" y="-242" font-family="Helvetica,sans-Serif" font-size="10.00"> </text>
<polyline fill="none" stroke="black" points="821.981,-235 898.981,-235 "/>
<text text-anchor="middle" x="860.481" y="-223" font-family="Helvetica,sans-Serif" font-size="10.00"> </text>
</a>
</g>
</g>
<!-- Node4&#45;&gt;Node12 -->
<g id="edge14" class="edge"><title>Node4&#45;&gt;Node12</title>
<path fill="none" stroke="#404040" d="M498.36,-352.158C552.389,-346.802 700.39,-328.358 812.481,-279 812.719,-278.895 812.957,-278.789 813.196,-278.681"/>
<polygon fill="none" stroke="#404040" points="813.201,-278.679 816.68,-272.362 823.849,-273.144 820.37,-279.461 813.201,-278.679"/>
<text text-anchor="middle" x="770.981" y="-300" font-family="Helvetica,sans-Serif" font-size="10.00"> +str</text>
</g>
<!-- Node4&#45;&gt;Node14 -->
<g id="edge18" class="edge"><title>Node4&#45;&gt;Node14</title>
<path fill="none" stroke="#404040" d="M476.165,-326.312C473.691,-291.274 466.616,-229.631 446.481,-181 445.382,-178.346 444.11,-175.691 442.721,-173.073"/>
<polygon fill="none" stroke="#404040" points="442.624,-172.91 436.118,-169.8 436.486,-162.599 442.992,-165.708 442.624,-172.91"/>
<text text-anchor="middle" x="490.981" y="-242" font-family="Helvetica,sans-Serif" font-size="10.00"> +reason</text>
</g>
<!-- Node5 -->
<g id="node5" class="node"><title>Node5</title>
<polygon fill="white" stroke="#bfbfbf" points="265.481,-216 265.481,-273 315.481,-273 315.481,-216 265.481,-216"/>
<text text-anchor="middle" x="290.481" y="-261" font-family="Helvetica,sans-Serif" font-size="10.00">Version</text>
<polyline fill="none" stroke="#bfbfbf" points="265.481,-254 315.481,-254 "/>
<text text-anchor="middle" x="290.481" y="-242" font-family="Helvetica,sans-Serif" font-size="10.00"> </text>
<polyline fill="none" stroke="#bfbfbf" points="265.481,-235 315.481,-235 "/>
<text text-anchor="middle" x="290.481" y="-223" font-family="Helvetica,sans-Serif" font-size="10.00"> </text>
</g>
<!-- Node5&#45;&gt;Node2 -->
<g id="edge4" class="edge"><title>Node5&#45;&gt;Node2</title>
<path fill="none" stroke="#404040" d="M265.336,-226.718C256.164,-220.993 245.566,-214.826 235.481,-210 214.176,-199.805 203.707,-207.02 185.481,-192 179.295,-186.902 173.961,-180.367 169.471,-173.55"/>
<polygon fill="none" stroke="#404040" points="169.211,-173.109 162.717,-169.975 163.112,-162.775 169.607,-165.909 169.211,-173.109"/>
<text text-anchor="middle" x="205.481" y="-184" font-family="Helvetica,sans-Serif" font-size="10.00"> +version</text>
</g>
<!-- Node5&#45;&gt;Node14 -->
<g id="edge19" class="edge"><title>Node5&#45;&gt;Node14</title>
<path fill="none" stroke="#404040" d="M296.668,-215.758C300.465,-203.89 306.4,-190.589 315.481,-181 323.886,-172.124 334.34,-164.801 345.278,-158.811"/>
<polygon fill="none" stroke="#404040" points="345.598,-158.65 349.16,-152.38 356.318,-153.258 352.755,-159.527 345.598,-158.65"/>
<text text-anchor="middle" x="335.481" y="-184" font-family="Helvetica,sans-Serif" font-size="10.00"> +version</text>
</g>
<!-- Node6 -->
<g id="node6" class="node"><title>Node6</title>
<polygon fill="white" stroke="#bfbfbf" points="42.9807,-216 42.9807,-273 91.9807,-273 91.9807,-216 42.9807,-216"/>
<text text-anchor="middle" x="67.4807" y="-261" font-family="Helvetica,sans-Serif" font-size="10.00">Method</text>
<polyline fill="none" stroke="#bfbfbf" points="42.9807,-254 91.9807,-254 "/>
<text text-anchor="middle" x="67.4807" y="-242" font-family="Helvetica,sans-Serif" font-size="10.00"> </text>
<polyline fill="none" stroke="#bfbfbf" points="42.9807,-235 91.9807,-235 "/>
<text text-anchor="middle" x="67.4807" y="-223" font-family="Helvetica,sans-Serif" font-size="10.00"> </text>
</g>
<!-- Node6&#45;&gt;Node2 -->
<g id="edge5" class="edge"><title>Node6&#45;&gt;Node2</title>
<path fill="none" stroke="#404040" d="M63.7418,-215.924C63.5077,-204.36 65.1063,-191.248 71.4807,-181 75.5899,-174.393 81.019,-168.638 87.1192,-163.649"/>
<polygon fill="none" stroke="#404040" points="87.4213,-163.431 89.9579,-156.681 97.1645,-156.426 94.6279,-163.177 87.4213,-163.431"/>
<text text-anchor="middle" x="92.4807" y="-184" font-family="Helvetica,sans-Serif" font-size="10.00"> +method</text>
</g>
<!-- Node7 -->
<g id="node7" class="node"><title>Node7</title>
<polygon fill="white" stroke="#bfbfbf" points="343.481,-216 343.481,-273 441.481,-273 441.481,-216 343.481,-216"/>
<text text-anchor="middle" x="392.481" y="-261" font-family="Helvetica,sans-Serif" font-size="10.00">vector&lt; std::byte &gt;</text>
<polyline fill="none" stroke="#bfbfbf" points="343.481,-254 441.481,-254 "/>
<text text-anchor="middle" x="392.481" y="-242" font-family="Helvetica,sans-Serif" font-size="10.00"> </text>
<polyline fill="none" stroke="#bfbfbf" points="343.481,-235 441.481,-235 "/>
<text text-anchor="middle" x="392.481" y="-223" font-family="Helvetica,sans-Serif" font-size="10.00"> </text>
</g>
<!-- Node7&#45;&gt;Node1 -->
<g id="edge21" class="edge"><title>Node7&#45;&gt;Node1</title>
<path fill="none" stroke="#404040" d="M436.295,-215.987C453.795,-202.402 472.014,-184.328 481.481,-163 494.543,-133.573 491.037,-96.8298 485.117,-69.4246"/>
<polygon fill="none" stroke="#404040" points="485.069,-69.221 479.783,-64.3155 482.278,-57.5499 487.564,-62.4554 485.069,-69.221"/>
<text text-anchor="middle" x="514.981" y="-137" font-family="Helvetica,sans-Serif" font-size="10.00"> +raw_resp</text>
<text text-anchor="middle" x="514.981" y="-126" font-family="Helvetica,sans-Serif" font-size="10.00">+raw_req</text>
</g>
<!-- Node7&#45;&gt;Node2 -->
<g id="edge6" class="edge"><title>Node7&#45;&gt;Node2</title>
<path fill="none" stroke="#404040" d="M382.153,-215.909C376.164,-203.481 367.41,-189.68 355.481,-181 315.583,-151.97 260.554,-140.798 217.703,-136.705"/>
<polygon fill="none" stroke="#404040" points="217.639,-136.7 211.329,-140.191 205.68,-135.71 211.989,-132.219 217.639,-136.7"/>
<text text-anchor="middle" x="382.981" y="-184" font-family="Helvetica,sans-Serif" font-size="10.00"> +body</text>
</g>
<!-- Node7&#45;&gt;Node14 -->
<g id="edge20" class="edge"><title>Node7&#45;&gt;Node14</title>
<path fill="none" stroke="#404040" d="M402.941,-215.755C405.449,-208.149 407.866,-199.839 409.481,-192 410.605,-186.544 411.476,-180.743 412.152,-175.01"/>
<polygon fill="none" stroke="#404040" points="412.184,-174.673 408.781,-168.316 413.34,-162.729 416.744,-169.087 412.184,-174.673"/>
<text text-anchor="middle" x="426.981" y="-184" font-family="Helvetica,sans-Serif" font-size="10.00"> +body</text>
</g>
<!-- Node8 -->
<g id="node8" class="node"><title>Node8</title>
<g id="a_node8"><a xlink:href="structzia_1_1api_1_1_net_info.html" target="_top" xlink:title="{zia::api::NetInfo\n||}">
<polygon fill="white" stroke="black" points="672.481,-105.5 672.481,-162.5 756.481,-162.5 756.481,-105.5 672.481,-105.5"/>
<text text-anchor="middle" x="714.481" y="-150.5" font-family="Helvetica,sans-Serif" font-size="10.00">zia::api::NetInfo</text>
<polyline fill="none" stroke="black" points="672.481,-143.5 756.481,-143.5 "/>
<text text-anchor="middle" x="714.481" y="-131.5" font-family="Helvetica,sans-Serif" font-size="10.00"> </text>
<polyline fill="none" stroke="black" points="672.481,-124.5 756.481,-124.5 "/>
<text text-anchor="middle" x="714.481" y="-112.5" font-family="Helvetica,sans-Serif" font-size="10.00"> </text>
</a>
</g>
</g>
<!-- Node8&#45;&gt;Node1 -->
<g id="edge7" class="edge"><title>Node8&#45;&gt;Node1</title>
<path fill="none" stroke="#404040" d="M672.226,-114.941C634.554,-98.8403 578.906,-75.0572 536.068,-56.7491"/>
<polygon fill="none" stroke="#404040" points="535.948,-56.6976 528.859,-58.0178 524.913,-51.9816 532.003,-50.6614 535.948,-56.6976"/>
<text text-anchor="middle" x="613.981" y="-79" font-family="Helvetica,sans-Serif" font-size="10.00"> +info</text>
</g>
<!-- Node9 -->
<g id="node9" class="node"><title>Node9</title>
<polygon fill="white" stroke="#bfbfbf" points="741.481,-216 741.481,-273 803.481,-273 803.481,-216 741.481,-216"/>
<text text-anchor="middle" x="772.481" y="-261" font-family="Helvetica,sans-Serif" font-size="10.00">time_point</text>
<polyline fill="none" stroke="#bfbfbf" points="741.481,-254 803.481,-254 "/>
<text text-anchor="middle" x="772.481" y="-242" font-family="Helvetica,sans-Serif" font-size="10.00"> </text>
<polyline fill="none" stroke="#bfbfbf" points="741.481,-235 803.481,-235 "/>
<text text-anchor="middle" x="772.481" y="-223" font-family="Helvetica,sans-Serif" font-size="10.00"> </text>
</g>
<!-- Node9&#45;&gt;Node8 -->
<g id="edge8" class="edge"><title>Node9&#45;&gt;Node8</title>
<path fill="none" stroke="#404040" d="M777.001,-215.859C777.618,-204.54 776.667,-191.631 771.481,-181 769.641,-177.229 767.328,-173.665 764.695,-170.318"/>
<polygon fill="none" stroke="#404040" points="764.678,-170.3 757.672,-168.593 756.553,-161.469 763.559,-163.176 764.678,-170.3"/>
<text text-anchor="middle" x="789.481" y="-184" font-family="Helvetica,sans-Serif" font-size="10.00"> +time</text>
</g>
<!-- Node9&#45;&gt;Node8 -->
<g id="edge10" class="edge"><title>Node9&#45;&gt;Node8</title>
<path fill="none" stroke="#404040" d="M752.807,-215.743C747.843,-208.209 742.724,-199.936 738.481,-192 735.457,-186.345 732.538,-180.227 729.84,-174.169"/>
<polygon fill="none" stroke="#404040" points="729.668,-173.767 723.632,-169.821 724.952,-162.732 730.988,-166.678 729.668,-173.767"/>
<text text-anchor="middle" x="752.981" y="-184" font-family="Helvetica,sans-Serif" font-size="10.00"> +start</text>
</g>
<!-- Node10 -->
<g id="node10" class="node"><title>Node10</title>
<polygon fill="white" stroke="#bfbfbf" points="581.981,-216 581.981,-273 632.981,-273 632.981,-216 581.981,-216"/>
<text text-anchor="middle" x="607.481" y="-261" font-family="Helvetica,sans-Serif" font-size="10.00">uint16_t</text>
<polyline fill="none" stroke="#bfbfbf" points="581.981,-254 632.981,-254 "/>
<text text-anchor="middle" x="607.481" y="-242" font-family="Helvetica,sans-Serif" font-size="10.00"> </text>
<polyline fill="none" stroke="#bfbfbf" points="581.981,-235 632.981,-235 "/>
<text text-anchor="middle" x="607.481" y="-223" font-family="Helvetica,sans-Serif" font-size="10.00"> </text>
</g>
<!-- Node10&#45;&gt;Node8 -->
<g id="edge9" class="edge"><title>Node10&#45;&gt;Node8</title>
<path fill="none" stroke="#404040" d="M626.913,-215.885C635.427,-204.569 645.884,-191.657 656.481,-181 659.998,-177.463 663.782,-173.941 667.671,-170.511"/>
<polygon fill="none" stroke="#404040" points="667.711,-170.477 669.696,-163.544 676.859,-162.71 674.874,-169.643 667.711,-170.477"/>
<text text-anchor="middle" x="669.481" y="-184" font-family="Helvetica,sans-Serif" font-size="10.00"> +port</text>
</g>
<!-- Node11 -->
<g id="node11" class="node"><title>Node11</title>
<polygon fill="white" stroke="#bfbfbf" points="651.481,-216 651.481,-273 723.481,-273 723.481,-216 651.481,-216"/>
<text text-anchor="middle" x="687.481" y="-261" font-family="Helvetica,sans-Serif" font-size="10.00">ImplSocket *</text>
<polyline fill="none" stroke="#bfbfbf" points="651.481,-254 723.481,-254 "/>
<text text-anchor="middle" x="687.481" y="-242" font-family="Helvetica,sans-Serif" font-size="10.00"> </text>
<polyline fill="none" stroke="#bfbfbf" points="651.481,-235 723.481,-235 "/>
<text text-anchor="middle" x="687.481" y="-223" font-family="Helvetica,sans-Serif" font-size="10.00"> </text>
</g>
<!-- Node11&#45;&gt;Node8 -->
<g id="edge11" class="edge"><title>Node11&#45;&gt;Node8</title>
<path fill="none" stroke="#404040" d="M685.003,-215.706C684.776,-204.724 685.465,-192.101 688.481,-181 689.138,-178.579 689.952,-176.151 690.881,-173.744"/>
<polygon fill="none" stroke="#404040" points="690.919,-173.66 689.78,-166.539 695.915,-162.749 697.054,-169.87 690.919,-173.66"/>
<text text-anchor="middle" x="703.981" y="-184" font-family="Helvetica,sans-Serif" font-size="10.00"> +sock</text>
</g>
<!-- Node12&#45;&gt;Node8 -->
<g id="edge12" class="edge"><title>Node12&#45;&gt;Node8</title>
<path fill="none" stroke="#404040" d="M840.955,-215.735C831.749,-204.002 820.035,-190.812 807.481,-181 795.617,-171.727 781.584,-163.606 768.065,-156.872"/>
<polygon fill="none" stroke="#404040" points="767.722,-156.708 760.585,-157.739 756.888,-151.547 764.025,-150.517 767.722,-156.708"/>
<text text-anchor="middle" x="826.981" y="-184" font-family="Helvetica,sans-Serif" font-size="10.00"> +ip</text>
</g>
<!-- Node13 -->
<g id="node13" class="node"><title>Node13</title>
<polygon fill="white" stroke="#bfbfbf" points="834.981,-326.5 834.981,-383.5 885.981,-383.5 885.981,-326.5 834.981,-326.5"/>
<text text-anchor="middle" x="860.481" y="-371.5" font-family="Helvetica,sans-Serif" font-size="10.00">uint32_t</text>
<polyline fill="none" stroke="#bfbfbf" points="834.981,-364.5 885.981,-364.5 "/>
<text text-anchor="middle" x="860.481" y="-352.5" font-family="Helvetica,sans-Serif" font-size="10.00"> </text>
<polyline fill="none" stroke="#bfbfbf" points="834.981,-345.5 885.981,-345.5 "/>
<text text-anchor="middle" x="860.481" y="-333.5" font-family="Helvetica,sans-Serif" font-size="10.00"> </text>
</g>
<!-- Node13&#45;&gt;Node12 -->
<g id="edge13" class="edge"><title>Node13&#45;&gt;Node12</title>
<path fill="none" stroke="#404040" d="M860.481,-326.34C860.481,-313.842 860.481,-298.842 860.481,-285.176"/>
<polygon fill="none" stroke="#404040" points="860.481,-285.109 856.481,-279.109 860.481,-273.109 864.481,-279.109 860.481,-285.109"/>
<text text-anchor="middle" x="866.481" y="-300" font-family="Helvetica,sans-Serif" font-size="10.00"> +i</text>
</g>
<!-- Node14&#45;&gt;Node1 -->
<g id="edge15" class="edge"><title>Node14&#45;&gt;Node1</title>
<path fill="none" stroke="#404040" d="M430.292,-105.398C436.839,-93.9679 444.542,-80.5199 451.616,-68.1701"/>
<polygon fill="none" stroke="#404040" points="451.662,-68.091 451.173,-60.8965 457.626,-57.6783 458.115,-64.8729 451.662,-68.091"/>
<text text-anchor="middle" x="460.481" y="-79" font-family="Helvetica,sans-Serif" font-size="10.00"> +resp</text>
</g>
<!-- Node15 -->
<g id="node15" class="node"><title>Node15</title>
<polygon fill="white" stroke="#bfbfbf" points="534.981,-216 534.981,-273 563.981,-273 563.981,-216 534.981,-216"/>
<text text-anchor="middle" x="549.481" y="-261" font-family="Helvetica,sans-Serif" font-size="10.00">int</text>
<polyline fill="none" stroke="#bfbfbf" points="534.981,-254 563.981,-254 "/>
<text text-anchor="middle" x="549.481" y="-242" font-family="Helvetica,sans-Serif" font-size="10.00"> </text>
<polyline fill="none" stroke="#bfbfbf" points="534.981,-235 563.981,-235 "/>
<text text-anchor="middle" x="549.481" y="-223" font-family="Helvetica,sans-Serif" font-size="10.00"> </text>
</g>
<!-- Node15&#45;&gt;Node14 -->
<g id="edge17" class="edge"><title>Node15&#45;&gt;Node14</title>
<path fill="none" stroke="#404040" d="M534.961,-226.249C530.403,-220.964 525.302,-215.181 520.481,-210 508.063,-196.656 505.859,-192.204 491.481,-181 486.337,-176.992 480.816,-173.064 475.179,-169.298"/>
<polygon fill="none" stroke="#404040" points="475.047,-169.213 467.837,-169.324 464.962,-162.711 472.172,-162.6 475.047,-169.213"/>
<text text-anchor="middle" x="522.981" y="-184" font-family="Helvetica,sans-Serif" font-size="10.00"> +status</text>
</g>
</g>
</svg>
