<?xml version="1.0" encoding="UTF-8" standalone="no"?>
<!DOCTYPE svg PUBLIC "-//W3C//DTD SVG 1.1//EN"
 "http://www.w3.org/Graphics/SVG/1.1/DTD/svg11.dtd">
<!-- Generated by graphviz version 2.38.0 (20140413.2041)
 -->
<!-- Title: zia::api::HttpDuplex Pages: 1 -->
<!--zoomable 403 -->
<svg id="main" version="1.1" xmlns="http://www.w3.org/2000/svg" xmlns:xlink="http://www.w3.org/1999/xlink" xml:space="preserve" onload="init(evt)">
<style type="text/css"><![CDATA[
.edge:hover path { stroke: red; }
.edge:hover polygon { stroke: red; fill: red; }
]]></style>
<script type="text/javascript"><![CDATA[
var edges = document.getElementsByTagName('g');
if (edges && edges.length) {
  for (var i=0;i<edges.length;i++) {
    if (edges[i].id.substr(0,4)=='edge') {
      edges[i].setAttribute('class','edge');
    }
  }
}
]]></script>
        <defs>
                <circle id="rim" cx="0" cy="0" r="7"/>
                <circle id="rim2" cx="0" cy="0" r="3.5"/>
                <g id="zoomPlus">
                        <use xlink:href="#rim" fill="#404040">
                                <set attributeName="fill" to="#808080" begin="zoomplus.mouseover" end="zoomplus.mouseout"/>
                        </use>
                        <path d="M-4,0h8M0,-4v8" fill="none" stroke="white" stroke-width="1.5" pointer-events="none"/>
                </g>
                <g id="zoomMin">
                        <use xlink:href="#rim" fill="#404040">
                                <set attributeName="fill" to="#808080" begin="zoomminus.mouseover" end="zoomminus.mouseout"/>
                        </use>
                        <path d="M-4,0h8" fill="none" stroke="white" stroke-width="1.5" pointer-events="none"/>
                </g>
                <g id="dirArrow">
                        <path fill="none" stroke="white" stroke-width="1.5" d="M0,-3.0v7 M-2.5,-0.5L0,-3.0L2.5,-0.5"/>
                </g>
               <g id="resetDef">
                       <use xlink:href="#rim2" fill="#404040">
                               <set attributeName="fill" to="#808080" begin="reset.mouseover" end="reset.mouseout"/>
                       </use>
               </g>
        </defs>

<script type="text/javascript">
var viewWidth = 723;
var viewHeight = 403;
var sectionId = 'dynsection-0';
</script>
<script xlink:href="svgpan.js"/>
<svg id="graph" class="graph">
<g id="viewport">
<title>zia::api::HttpDuplex</title>
<polygon fill="white" stroke="none" points="-4,4 -4,-399 718.5,-399 718.5,4 -4,4"/>
<!-- Node1 -->
<g id="node1" class="node"><title>Node1</title>
<polygon fill="#bfbfbf" stroke="black" points="217,-0.5 217,-57.5 319,-57.5 319,-0.5 217,-0.5"/>
<text text-anchor="middle" x="268" y="-45.5" font-family="Helvetica,sans-Serif" font-size="10.00">zia::api::HttpDuplex</text>
<polyline fill="none" stroke="black" points="217,-38.5 319,-38.5 "/>
<text text-anchor="middle" x="268" y="-26.5" font-family="Helvetica,sans-Serif" font-size="10.00"> </text>
<polyline fill="none" stroke="black" points="217,-19.5 319,-19.5 "/>
<text text-anchor="middle" x="268" y="-7.5" font-family="Helvetica,sans-Serif" font-size="10.00"> </text>
</g>
<!-- Node2 -->
<g id="node2" class="node"><title>Node2</title>
<g id="a_node2"><a xlink:href="structzia_1_1api_1_1_http_request.html" target="_top" xlink:title="{zia::api::HttpRequest\n||}">
<polygon fill="white" stroke="black" points="149,-105.5 149,-162.5 257,-162.5 257,-105.5 149,-105.5"/>
<text text-anchor="middle" x="203" y="-150.5" font-family="Helvetica,sans-Serif" font-size="10.00">zia::api::HttpRequest</text>
<polyline fill="none" stroke="black" points="149,-143.5 257,-143.5 "/>
<text text-anchor="middle" x="203" y="-131.5" font-family="Helvetica,sans-Serif" font-size="10.00"> </text>
<polyline fill="none" stroke="black" points="149,-124.5 257,-124.5 "/>
<text text-anchor="middle" x="203" y="-112.5" font-family="Helvetica,sans-Serif" font-size="10.00"> </text>
</a>
</g>
</g>
<!-- Node2&#45;&gt;Node1 -->
<g id="edge1" class="edge"><title>Node2&#45;&gt;Node1</title>
<path fill="none" stroke="#404040" d="M220.419,-105.398C227.632,-93.9679 236.119,-80.5199 243.912,-68.1701"/>
<polygon fill="none" stroke="#404040" points="244.129,-67.8265 243.948,-60.6177 250.533,-57.6783 250.714,-64.8872 244.129,-67.8265"/>
<text text-anchor="middle" x="249.5" y="-79" font-family="Helvetica,sans-Serif" font-size="10.00"> +req</text>
</g>
<!-- Node3 -->
<g id="node3" class="node"><title>Node3</title>
<g id="a_node3"><a xlink:href="structzia_1_1api_1_1_http_message.html" target="_top" xlink:title="{zia::api::HttpMessage\n||+ ~HttpMessage()\l}">
<polygon fill="white" stroke="black" points="147,-221.5 147,-278.5 259,-278.5 259,-221.5 147,-221.5"/>
<text text-anchor="middle" x="203" y="-266.5" font-family="Helvetica,sans-Serif" font-size="10.00">zia::api::HttpMessage</text>
<polyline fill="none" stroke="black" points="147,-259.5 259,-259.5 "/>
<text text-anchor="middle" x="203" y="-247.5" font-family="Helvetica,sans-Serif" font-size="10.00"> </text>
<polyline fill="none" stroke="black" points="147,-240.5 259,-240.5 "/>
<text text-anchor="start" x="155" y="-228.5" font-family="Helvetica,sans-Serif" font-size="10.00">+ ~HttpMessage()</text>
</a>
</g>
</g>
<!-- Node3&#45;&gt;Node2 -->
<g id="edge2" class="edge"><title>Node3&#45;&gt;Node2</title>
<path fill="none" stroke="midnightblue" d="M203,-211.364C203,-195.496 203,-177.355 203,-162.737"/>
<polygon fill="none" stroke="midnightblue" points="199.5,-211.404 203,-221.404 206.5,-211.404 199.5,-211.404"/>
</g>
<!-- Node15 -->
<g id="node15" class="node"><title>Node15</title>
<g id="a_node15"><a xlink:href="structzia_1_1api_1_1_http_response.html" target="_top" xlink:title="{zia::api::HttpResponse\n||}">
<polygon fill="white" stroke="black" points="275,-105.5 275,-162.5 391,-162.5 391,-105.5 275,-105.5"/>
<text text-anchor="middle" x="333" y="-150.5" font-family="Helvetica,sans-Serif" font-size="10.00">zia::api::HttpResponse</text>
<polyline fill="none" stroke="black" points="275,-143.5 391,-143.5 "/>
<text text-anchor="middle" x="333" y="-131.5" font-family="Helvetica,sans-Serif" font-size="10.00"> </text>
<polyline fill="none" stroke="black" points="275,-124.5 391,-124.5 "/>
<text text-anchor="middle" x="333" y="-112.5" font-family="Helvetica,sans-Serif" font-size="10.00"> </text>
</a>
</g>
</g>
<!-- Node3&#45;&gt;Node15 -->
<g id="edge17" class="edge"><title>Node3&#45;&gt;Node15</title>
<path fill="none" stroke="midnightblue" d="M242.083,-214.727C261.038,-198.105 283.51,-178.399 301.37,-162.737"/>
<polygon fill="none" stroke="midnightblue" points="239.68,-212.179 234.469,-221.404 244.296,-217.442 239.68,-212.179"/>
</g>
<!-- Node4 -->
<g id="node4" class="node"><title>Node4</title>
<polygon fill="white" stroke="#bfbfbf" points="184.5,-326.5 184.5,-394.5 291.5,-394.5 291.5,-326.5 184.5,-326.5"/>
<text text-anchor="start" x="192.5" y="-382.5" font-family="Helvetica,sans-Serif" font-size="10.00">map&lt; std::string, std</text>
<text text-anchor="middle" x="238" y="-371.5" font-family="Helvetica,sans-Serif" font-size="10.00">::string &gt;</text>
<polyline fill="none" stroke="#bfbfbf" points="184.5,-364.5 291.5,-364.5 "/>
<text text-anchor="middle" x="238" y="-352.5" font-family="Helvetica,sans-Serif" font-size="10.00"> </text>
<polyline fill="none" stroke="#bfbfbf" points="184.5,-345.5 291.5,-345.5 "/>
<text text-anchor="middle" x="238" y="-333.5" font-family="Helvetica,sans-Serif" font-size="10.00"> </text>
</g>
<!-- Node4&#45;&gt;Node3 -->
<g id="edge3" class="edge"><title>Node4&#45;&gt;Node3</title>
<path fill="none" stroke="#404040" d="M227.309,-326.357C223.668,-315.071 219.562,-302.341 215.775,-290.601"/>
<polygon fill="none" stroke="#404040" points="215.661,-290.247 210.012,-285.765 211.976,-278.827 217.625,-283.309 215.661,-290.247"/>
<text text-anchor="middle" x="243" y="-300" font-family="Helvetica,sans-Serif" font-size="10.00"> +headers</text>
</g>
<!-- Node5 -->
<g id="node5" class="node"><title>Node5</title>
<polygon fill="white" stroke="#bfbfbf" points="116,-332 116,-389 166,-389 166,-332 116,-332"/>
<text text-anchor="middle" x="141" y="-377" font-family="Helvetica,sans-Serif" font-size="10.00">Version</text>
<polyline fill="none" stroke="#bfbfbf" points="116,-370 166,-370 "/>
<text text-anchor="middle" x="141" y="-358" font-family="Helvetica,sans-Serif" font-size="10.00"> </text>
<polyline fill="none" stroke="#bfbfbf" points="116,-351 166,-351 "/>
<text text-anchor="middle" x="141" y="-339" font-family="Helvetica,sans-Serif" font-size="10.00"> </text>
</g>
<!-- Node5&#45;&gt;Node3 -->
<g id="edge4" class="edge"><title>Node5&#45;&gt;Node3</title>
<path fill="none" stroke="#404040" d="M155.609,-331.959C161.513,-321.012 168.466,-308.346 175,-297 176.511,-294.377 178.087,-291.682 179.688,-288.975"/>
<polygon fill="none" stroke="#404040" points="179.736,-288.895 179.387,-281.693 185.901,-278.601 186.25,-285.803 179.736,-288.895"/>
<text text-anchor="middle" x="195" y="-300" font-family="Helvetica,sans-Serif" font-size="10.00"> +version</text>
</g>
<!-- Node6 -->
<g id="node6" class="node"><title>Node6</title>
<polygon fill="white" stroke="#bfbfbf" points="0,-332 0,-389 98,-389 98,-332 0,-332"/>
<text text-anchor="middle" x="49" y="-377" font-family="Helvetica,sans-Serif" font-size="10.00">vector&lt; std::byte &gt;</text>
<polyline fill="none" stroke="#bfbfbf" points="0,-370 98,-370 "/>
<text text-anchor="middle" x="49" y="-358" font-family="Helvetica,sans-Serif" font-size="10.00"> </text>
<polyline fill="none" stroke="#bfbfbf" points="0,-351 98,-351 "/>
<text text-anchor="middle" x="49" y="-339" font-family="Helvetica,sans-Serif" font-size="10.00"> </text>
</g>
<!-- Node6&#45;&gt;Node1 -->
<g id="edge19" class="edge"><title>Node6&#45;&gt;Node1</title>
<path fill="none" stroke="#404040" d="M49.8063,-331.803C51.9337,-295.185 59.4895,-229.628 86,-181 105.834,-144.619 109.444,-132.986 140,-105 159.505,-87.1352 183.96,-71.5341 206.254,-59.2554"/>
<polygon fill="none" stroke="#404040" points="206.417,-59.1681 209.815,-52.8082 216.993,-53.4993 213.594,-59.8592 206.417,-59.1681"/>
<text text-anchor="middle" x="110.5" y="-195" font-family="Helvetica,sans-Serif" font-size="10.00"> +raw_resp</text>
<text text-anchor="middle" x="110.5" y="-184" font-family="Helvetica,sans-Serif" font-size="10.00">+raw_req</text>
</g>
<!-- Node6&#45;&gt;Node3 -->
<g id="edge5" class="edge"><title>Node6&#45;&gt;Node3</title>
<path fill="none" stroke="#404040" d="M86.4789,-331.843C101.485,-320.88 118.982,-308.234 135,-297 140.397,-293.215 146.064,-289.296 151.726,-285.415"/>
<polygon fill="none" stroke="#404040" points="151.94,-285.269 154.644,-278.584 161.855,-278.508 159.151,-285.194 151.94,-285.269"/>
<text text-anchor="middle" x="150.5" y="-300" font-family="Helvetica,sans-Serif" font-size="10.00"> +body</text>
</g>
<!-- Node7 -->
<g id="node7" class="node"><title>Node7</title>
<polygon fill="white" stroke="#bfbfbf" points="79.5,-221.5 79.5,-278.5 128.5,-278.5 128.5,-221.5 79.5,-221.5"/>
<text text-anchor="middle" x="104" y="-266.5" font-family="Helvetica,sans-Serif" font-size="10.00">Method</text>
<polyline fill="none" stroke="#bfbfbf" points="79.5,-259.5 128.5,-259.5 "/>
<text text-anchor="middle" x="104" y="-247.5" font-family="Helvetica,sans-Serif" font-size="10.00"> </text>
<polyline fill="none" stroke="#bfbfbf" points="79.5,-240.5 128.5,-240.5 "/>
<text text-anchor="middle" x="104" y="-228.5" font-family="Helvetica,sans-Serif" font-size="10.00"> </text>
</g>
<!-- Node7&#45;&gt;Node2 -->
<g id="edge6" class="edge"><title>Node7&#45;&gt;Node2</title>
<path fill="none" stroke="#404040" d="M124.401,-221.246C133.955,-208.669 145.701,-193.786 157,-181 159.776,-177.858 162.715,-174.66 165.71,-171.488"/>
<polygon fill="none" stroke="#404040" points="165.876,-171.317 167.169,-164.222 174.214,-162.687 172.922,-169.781 165.876,-171.317"/>
<text text-anchor="middle" x="178" y="-189.5" font-family="Helvetica,sans-Serif" font-size="10.00"> +method</text>
</g>
<!-- Node8 -->
<g id="node8" class="node"><title>Node8</title>
<polygon fill="white" stroke="#bfbfbf" points="451.5,-332 451.5,-389 492.5,-389 492.5,-332 451.5,-332"/>
<text text-anchor="middle" x="472" y="-377" font-family="Helvetica,sans-Serif" font-size="10.00">string</text>
<polyline fill="none" stroke="#bfbfbf" points="451.5,-370 492.5,-370 "/>
<text text-anchor="middle" x="472" y="-358" font-family="Helvetica,sans-Serif" font-size="10.00"> </text>
<polyline fill="none" stroke="#bfbfbf" points="451.5,-351 492.5,-351 "/>
<text text-anchor="middle" x="472" y="-339" font-family="Helvetica,sans-Serif" font-size="10.00"> </text>
</g>
<!-- Node8&#45;&gt;Node2 -->
<g id="edge7" class="edge"><title>Node8&#45;&gt;Node2</title>
<path fill="none" stroke="#404040" d="M451.231,-353.744C417.177,-343.46 348.784,-319.165 304,-279 281.413,-258.743 285.165,-246.017 268,-221 256.902,-204.825 243.996,-187.479 232.622,-172.632"/>
<polygon fill="none" stroke="#404040" points="232.365,-172.299 225.533,-169.992 225.034,-162.798 231.867,-165.105 232.365,-172.299"/>
<text text-anchor="middle" x="314" y="-247.5" font-family="Helvetica,sans-Serif" font-size="10.00"> +uri</text>
</g>
<!-- Node13 -->
<g id="node13" class="node"><title>Node13</title>
<g id="a_node13"><a xlink:href="structzia_1_1api_1_1_net_ip.html" target="_top" xlink:title="{zia::api::NetIp\n||}">
<polygon fill="white" stroke="black" points="637.5,-221.5 637.5,-278.5 714.5,-278.5 714.5,-221.5 637.5,-221.5"/>
<text text-anchor="middle" x="676" y="-266.5" font-family="Helvetica,sans-Serif" font-size="10.00">zia::api::NetIp</text>
<polyline fill="none" stroke="black" points="637.5,-259.5 714.5,-259.5 "/>
<text text-anchor="middle" x="676" y="-247.5" font-family="Helvetica,sans-Serif" font-size="10.00"> </text>
<polyline fill="none" stroke="black" points="637.5,-240.5 714.5,-240.5 "/>
<text text-anchor="middle" x="676" y="-228.5" font-family="Helvetica,sans-Serif" font-size="10.00"> </text>
</a>
</g>
</g>
<!-- Node8&#45;&gt;Node13 -->
<g id="edge15" class="edge"><title>Node8&#45;&gt;Node13</title>
<path fill="none" stroke="#404040" d="M492.62,-349.286C520.77,-335.252 572.981,-308.902 626.591,-279.672"/>
<polygon fill="none" stroke="#404040" points="626.802,-279.557 630.141,-273.166 637.325,-273.79 633.986,-280.182 626.802,-279.557"/>
<text text-anchor="middle" x="605.5" y="-300" font-family="Helvetica,sans-Serif" font-size="10.00"> +str</text>
</g>
<!-- Node9 -->
<g id="node9" class="node"><title>Node9</title>
<g id="a_node9"><a xlink:href="structzia_1_1api_1_1_net_info.html" target="_top" xlink:title="{zia::api::NetInfo\n||}">
<polygon fill="white" stroke="black" points="450,-105.5 450,-162.5 534,-162.5 534,-105.5 450,-105.5"/>
<text text-anchor="middle" x="492" y="-150.5" font-family="Helvetica,sans-Serif" font-size="10.00">zia::api::NetInfo</text>
<polyline fill="none" stroke="black" points="450,-143.5 534,-143.5 "/>
<text text-anchor="middle" x="492" y="-131.5" font-family="Helvetica,sans-Serif" font-size="10.00"> </text>
<polyline fill="none" stroke="black" points="450,-124.5 534,-124.5 "/>
<text text-anchor="middle" x="492" y="-112.5" font-family="Helvetica,sans-Serif" font-size="10.00"> </text>
</a>
</g>
</g>
<!-- Node9&#45;&gt;Node1 -->
<g id="edge8" class="edge"><title>Node9&#45;&gt;Node1</title>
<path fill="none" stroke="#404040" d="M449.867,-113.626C416.186,-98.1391 368.469,-76.1978 330.362,-58.6756"/>
<polygon fill="none" stroke="#404040" points="330.284,-58.6396 323.162,-59.7671 319.381,-53.6262 326.504,-52.4987 330.284,-58.6396"/>
<text text-anchor="middle" x="399.5" y="-79" font-family="Helvetica,sans-Serif" font-size="10.00"> +info</text>
</g>
<!-- Node10 -->
<g id="node10" class="node"><title>Node10</title>
<polygon fill="white" stroke="#bfbfbf" points="397,-221.5 397,-278.5 459,-278.5 459,-221.5 397,-221.5"/>
<text text-anchor="middle" x="428" y="-266.5" font-family="Helvetica,sans-Serif" font-size="10.00">time_point</text>
<polyline fill="none" stroke="#bfbfbf" points="397,-259.5 459,-259.5 "/>
<text text-anchor="middle" x="428" y="-247.5" font-family="Helvetica,sans-Serif" font-size="10.00"> </text>
<polyline fill="none" stroke="#bfbfbf" points="397,-240.5 459,-240.5 "/>
<text text-anchor="middle" x="428" y="-228.5" font-family="Helvetica,sans-Serif" font-size="10.00"> </text>
</g>
<!-- Node10&#45;&gt;Node9 -->
<g id="edge9" class="edge"><title>Node10&#45;&gt;Node9</title>
<path fill="none" stroke="#404040" d="M415.137,-221.435C411.028,-208.472 409.113,-193.219 416,-181 421.506,-171.232 430.014,-163.302 439.375,-156.954"/>
<polygon fill="none" stroke="#404040" points="439.496,-156.881 442.562,-150.354 449.766,-150.674 446.7,-157.201 439.496,-156.881"/>
<text text-anchor="middle" x="430" y="-189.5" font-family="Helvetica,sans-Serif" font-size="10.00"> +time</text>
</g>
<!-- Node10&#45;&gt;Node9 -->
<g id="edge11" class="edge"><title>Node10&#45;&gt;Node9</title>
<path fill="none" stroke="#404040" d="M442.168,-221.335C448.653,-208.91 456.541,-194.123 464,-181 465.496,-178.369 467.061,-175.667 468.654,-172.955"/>
<polygon fill="none" stroke="#404040" points="468.701,-172.876 468.341,-165.674 474.85,-162.571 475.211,-169.773 468.701,-172.876"/>
<text text-anchor="middle" x="478.5" y="-189.5" font-family="Helvetica,sans-Serif" font-size="10.00"> +start</text>
</g>
<!-- Node11 -->
<g id="node11" class="node"><title>Node11</title>
<polygon fill="white" stroke="#bfbfbf" points="477.5,-221.5 477.5,-278.5 528.5,-278.5 528.5,-221.5 477.5,-221.5"/>
<text text-anchor="middle" x="503" y="-266.5" font-family="Helvetica,sans-Serif" font-size="10.00">uint16_t</text>
<polyline fill="none" stroke="#bfbfbf" points="477.5,-259.5 528.5,-259.5 "/>
<text text-anchor="middle" x="503" y="-247.5" font-family="Helvetica,sans-Serif" font-size="10.00"> </text>
<polyline fill="none" stroke="#bfbfbf" points="477.5,-240.5 528.5,-240.5 "/>
<text text-anchor="middle" x="503" y="-228.5" font-family="Helvetica,sans-Serif" font-size="10.00"> </text>
</g>
<!-- Node11&#45;&gt;Node9 -->
<g id="edge10" class="edge"><title>Node11&#45;&gt;Node9</title>
<path fill="none" stroke="#404040" d="M500.337,-221.404C498.996,-207.504 497.345,-190.392 495.867,-175.073"/>
<polygon fill="none" stroke="#404040" points="495.829,-174.682 491.271,-169.094 494.676,-162.737 499.234,-168.325 495.829,-174.682"/>
<text text-anchor="middle" x="512" y="-189.5" font-family="Helvetica,sans-Serif" font-size="10.00"> +port</text>
</g>
<!-- Node12 -->
<g id="node12" class="node"><title>Node12</title>
<polygon fill="white" stroke="#bfbfbf" points="547,-221.5 547,-278.5 619,-278.5 619,-221.5 547,-221.5"/>
<text text-anchor="middle" x="583" y="-266.5" font-family="Helvetica,sans-Serif" font-size="10.00">ImplSocket *</text>
<polyline fill="none" stroke="#bfbfbf" points="547,-259.5 619,-259.5 "/>
<text text-anchor="middle" x="583" y="-247.5" font-family="Helvetica,sans-Serif" font-size="10.00"> </text>
<polyline fill="none" stroke="#bfbfbf" points="547,-240.5 619,-240.5 "/>
<text text-anchor="middle" x="583" y="-228.5" font-family="Helvetica,sans-Serif" font-size="10.00"> </text>
</g>
<!-- Node12&#45;&gt;Node9 -->
<g id="edge12" class="edge"><title>Node12&#45;&gt;Node9</title>
<path fill="none" stroke="#404040" d="M560.97,-221.178C551.195,-208.854 539.541,-194.189 529,-181 526.706,-178.13 524.33,-175.162 521.938,-172.18"/>
<polygon fill="none" stroke="#404040" points="521.846,-172.065 514.97,-169.891 514.333,-162.708 521.208,-164.882 521.846,-172.065"/>
<text text-anchor="middle" x="561.5" y="-189.5" font-family="Helvetica,sans-Serif" font-size="10.00"> +sock</text>
</g>
<!-- Node13&#45;&gt;Node9 -->
<g id="edge13" class="edge"><title>Node13&#45;&gt;Node9</title>
<path fill="none" stroke="#404040" d="M639.846,-221.251C622.456,-208.394 601.069,-193.281 581,-181 569.641,-174.049 557.116,-167.142 545.138,-160.873"/>
<polygon fill="none" stroke="#404040" points="545.01,-160.807 537.844,-161.616 534.341,-155.313 541.507,-154.504 545.01,-160.807"/>
<text text-anchor="middle" x="622.5" y="-189.5" font-family="Helvetica,sans-Serif" font-size="10.00"> +ip</text>
</g>
<!-- Node14 -->
<g id="node14" class="node"><title>Node14</title>
<polygon fill="white" stroke="#bfbfbf" points="650.5,-332 650.5,-389 701.5,-389 701.5,-332 650.5,-332"/>
<text text-anchor="middle" x="676" y="-377" font-family="Helvetica,sans-Serif" font-size="10.00">uint32_t</text>
<polyline fill="none" stroke="#bfbfbf" points="650.5,-370 701.5,-370 "/>
<text text-anchor="middle" x="676" y="-358" font-family="Helvetica,sans-Serif" font-size="10.00"> </text>
<polyline fill="none" stroke="#bfbfbf" points="650.5,-351 701.5,-351 "/>
<text text-anchor="middle" x="676" y="-339" font-family="Helvetica,sans-Serif" font-size="10.00"> </text>
</g>
<!-- Node14&#45;&gt;Node13 -->
<g id="edge14" class="edge"><title>Node14&#45;&gt;Node13</title>
<path fill="none" stroke="#404040" d="M676,-331.84C676,-319.342 676,-304.342 676,-290.676"/>
<polygon fill="none" stroke="#404040" points="676,-290.609 672,-284.609 676,-278.609 680,-284.609 676,-290.609"/>
<text text-anchor="middle" x="682" y="-300" font-family="Helvetica,sans-Serif" font-size="10.00"> +i</text>
</g>
<!-- Node15&#45;&gt;Node1 -->
<g id="edge16" class="edge"><title>Node15&#45;&gt;Node1</title>
<path fill="none" stroke="#404040" d="M315.581,-105.398C308.368,-93.9679 299.881,-80.5199 292.088,-68.1701"/>
<polygon fill="none" stroke="#404040" points="291.871,-67.8265 285.286,-64.8872 285.467,-57.6783 292.052,-60.6177 291.871,-67.8265"/>
<text text-anchor="middle" x="317" y="-79" font-family="Helvetica,sans-Serif" font-size="10.00"> +resp</text>
</g>
<!-- Node16 -->
<g id="node16" class="node"><title>Node16</title>
<polygon fill="white" stroke="#bfbfbf" points="333.5,-221.5 333.5,-278.5 378.5,-278.5 378.5,-221.5 333.5,-221.5"/>
<text text-anchor="middle" x="356" y="-266.5" font-family="Helvetica,sans-Serif" font-size="10.00">Status</text>
<polyline fill="none" stroke="#bfbfbf" points="333.5,-259.5 378.5,-259.5 "/>
<text text-anchor="middle" x="356" y="-247.5" font-family="Helvetica,sans-Serif" font-size="10.00"> </text>
<polyline fill="none" stroke="#bfbfbf" points="333.5,-240.5 378.5,-240.5 "/>
<text text-anchor="middle" x="356" y="-228.5" font-family="Helvetica,sans-Serif" font-size="10.00"> </text>
</g>
<!-- Node16&#45;&gt;Node15 -->
<g id="edge18" class="edge"><title>Node16&#45;&gt;Node15</title>
<path fill="none" stroke="#404040" d="M350.432,-221.404C347.6,-207.365 344.106,-190.049 340.992,-174.614"/>
<polygon fill="none" stroke="#404040" points="340.969,-174.5 335.862,-169.41 338.596,-162.737 343.704,-167.828 340.969,-174.5"/>
<text text-anchor="middle" x="365.5" y="-189.5" font-family="Helvetica,sans-Serif" font-size="10.00"> +status</text>
</g>
</g>
</svg>
        <g id="navigator" transform="translate(0 0)" fill="#404254">
                <rect fill="#f2f5e9" fill-opacity="0.5" stroke="#606060" stroke-width=".5" x="0" y="0" width="60" height="60"/>
                <use id="zoomplus" xlink:href="#zoomPlus" x="17" y="9" onmousedown="handleZoom(evt,'in')"/>
                <use id="zoomminus" xlink:href="#zoomMin" x="42" y="9" onmousedown="handleZoom(evt,'out')"/>
                <use id="reset" xlink:href="#resetDef" x="30" y="36" onmousedown="handleReset()"/>
                <g id="arrowUp" xlink:href="#dirArrow" transform="translate(30 24)" onmousedown="handlePan(0,-1)">
                  <use xlink:href="#rim" fill="#404040">
                        <set attributeName="fill" to="#808080" begin="arrowUp.mouseover" end="arrowUp.mouseout"/>
                  </use>
                  <path fill="none" stroke="white" stroke-width="1.5" d="M0,-3.0v7 M-2.5,-0.5L0,-3.0L2.5,-0.5"/>
                </g>
                <g id="arrowRight" xlink:href="#dirArrow" transform="rotate(90) translate(36 -43)" onmousedown="handlePan(1,0)">
                  <use xlink:href="#rim" fill="#404040">
                        <set attributeName="fill" to="#808080" begin="arrowRight.mouseover" end="arrowRight.mouseout"/>
                  </use>
                  <path fill="none" stroke="white" stroke-width="1.5" d="M0,-3.0v7 M-2.5,-0.5L0,-3.0L2.5,-0.5"/>
                </g>
                <g id="arrowDown" xlink:href="#dirArrow" transform="rotate(180) translate(-30 -48)" onmousedown="handlePan(0,1)">
                  <use xlink:href="#rim" fill="#404040">
                        <set attributeName="fill" to="#808080" begin="arrowDown.mouseover" end="arrowDown.mouseout"/>
                  </use>
                  <path fill="none" stroke="white" stroke-width="1.5" d="M0,-3.0v7 M-2.5,-0.5L0,-3.0L2.5,-0.5"/>
                </g>
                <g id="arrowLeft" xlink:href="#dirArrow" transform="rotate(270) translate(-36 17)" onmousedown="handlePan(-1,0)">
                  <use xlink:href="#rim" fill="#404040">
                        <set attributeName="fill" to="#808080" begin="arrowLeft.mouseover" end="arrowLeft.mouseout"/>
                  </use>
                  <path fill="none" stroke="white" stroke-width="1.5" d="M0,-3.0v7 M-2.5,-0.5L0,-3.0L2.5,-0.5"/>
                </g>
        </g>
        <svg viewBox="0 0 15 15" width="100%" height="30px" preserveAspectRatio="xMaxYMin meet">
         <g id="arrow_out" transform="scale(0.3 0.3)">
          <a xlink:href="structzia_1_1api_1_1_http_duplex__coll__graph_org.svg" target="_base">
           <rect id="button" ry="5" rx="5" y="6" x="6" height="38" width="38"
                fill="#f2f5e9" fill-opacity="0.5" stroke="#606060" stroke-width="1.0"/>
           <path id="arrow"
             d="M 11.500037,31.436501 C 11.940474,20.09759 22.043105,11.32322 32.158766,21.979434 L 37.068811,17.246167 C 37.068811,17.246167 37.088388,32 37.088388,32 L 22.160133,31.978069 C 22.160133,31.978069 26.997745,27.140456 26.997745,27.140456 C 18.528582,18.264221 13.291696,25.230495 11.500037,31.436501 z"
             style="fill:#404040;"/>
          </a>
         </g>
        </svg>
</svg>
