<?xml version="1.0" encoding="UTF-8" standalone="no"?>
<!DOCTYPE svg PUBLIC "-//W3C//DTD SVG 1.1//EN"
 "http://www.w3.org/Graphics/SVG/1.1/DTD/svg11.dtd">
<!-- Generated by graphviz version 2.38.0 (20140413.2041)
 -->
<!-- Title: zia::api::ConfValue Pages: 1 -->
<svg width="134pt" height="193pt"
 viewBox="0.00 0.00 134.00 193.00" xmlns="http://www.w3.org/2000/svg" xmlns:xlink="http://www.w3.org/1999/xlink">
<g id="graph0" class="graph" transform="scale(1 1) rotate(0) translate(4 189)">
<title>zia::api::ConfValue</title>
<polygon fill="white" stroke="none" points="-4,4 -4,-189 130,-189 130,4 -4,4"/>
<!-- Node1 -->
<g id="node1" class="node"><title>Node1</title>
<polygon fill="#bfbfbf" stroke="black" points="14,-0.5 14,-57.5 112,-57.5 112,-0.5 14,-0.5"/>
<text text-anchor="middle" x="63" y="-45.5" font-family="Helvetica,sans-Serif" font-size="10.00">zia::api::ConfValue</text>
<polyline fill="none" stroke="black" points="14,-38.5 112,-38.5 "/>
<text text-anchor="middle" x="63" y="-26.5" font-family="Helvetica,sans-Serif" font-size="10.00"> </text>
<polyline fill="none" stroke="black" points="14,-19.5 112,-19.5 "/>
<text text-anchor="middle" x="63" y="-7.5" font-family="Helvetica,sans-Serif" font-size="10.00"> </text>
</g>
<!-- Node2 -->
<g id="node2" class="node"><title>Node2</title>
<polygon fill="white" stroke="#bfbfbf" points="0,-105.5 0,-184.5 126,-184.5 126,-105.5 0,-105.5"/>
<text text-anchor="start" x="8" y="-172.5" font-family="Helvetica,sans-Serif" font-size="10.00">variant&lt; ConfObject,</text>
<text text-anchor="start" x="8" y="-161.5" font-family="Helvetica,sans-Serif" font-size="10.00"> ConfArray, std::string,</text>
<text text-anchor="middle" x="63" y="-150.5" font-family="Helvetica,sans-Serif" font-size="10.00"> long long, double, bool &gt;</text>
<polyline fill="none" stroke="#bfbfbf" points="0,-143.5 126,-143.5 "/>
<text text-anchor="middle" x="63" y="-131.5" font-family="Helvetica,sans-Serif" font-size="10.00"> </text>
<polyline fill="none" stroke="#bfbfbf" points="0,-124.5 126,-124.5 "/>
<text text-anchor="middle" x="63" y="-112.5" font-family="Helvetica,sans-Serif" font-size="10.00"> </text>
</g>
<!-- Node2&#45;&gt;Node1 -->
<g id="edge1" class="edge"><title>Node2&#45;&gt;Node1</title>
<path fill="none" stroke="#404040" d="M63,-105.405C63,-93.9252 63,-81.3299 63,-69.7765"/>
<polygon fill="none" stroke="#404040" points="63.0001,-69.7509 59,-63.7509 63,-57.7509 67,-63.7508 63.0001,-69.7509"/>
<text text-anchor="middle" x="69.5" y="-79" font-family="Helvetica,sans-Serif" font-size="10.00"> +v</text>
</g>
</g>
</svg>
